<?xml version="1.0" encoding="UTF-8"?>
<svg id="_图层_1" data-name="图层_1" xmlns="http://www.w3.org/2000/svg" version="1.1" viewBox="0 0 595.28 841.89">
  <!-- Generator: Adobe Illustrator 30.0.0, SVG Export Plug-In . SVG Version: 2.1.1 Build 123)  -->
  <defs>
    <style>
      .st0 {
        fill: #d6d6d7;
      }

      .st0, .st1, .st2, .st3, .st4, .st5, .st6, .st7, .st8, .st9, .st10, .st11, .st12, .st13, .st14, .st15, .st16, .st17, .st18, .st19, .st20, .st21, .st22, .st23, .st24, .st25, .st26, .st27, .st28, .st29, .st30, .st31, .st32, .st33, .st34, .st35, .st36, .st37, .st38, .st39, .st40, .st41, .st42, .st43, .st44, .st45, .st46, .st47, .st48, .st49, .st50, .st51, .st52, .st53, .st54, .st55, .st56, .st57, .st58, .st59, .st60, .st61, .st62, .st63, .st64, .st65, .st66, .st67, .st68, .st69, .st70, .st71, .st72, .st73, .st74, .st75, .st76, .st77, .st78, .st79, .st80, .st81, .st82, .st83, .st84, .st85, .st86, .st87, .st88, .st89, .st90, .st91, .st92, .st93, .st94, .st95, .st96, .st97, .st98, .st99, .st100, .st101, .st102, .st103, .st104, .st105, .st106, .st107, .st108, .st109, .st110, .st111, .st112, .st113, .st114, .st115, .st116, .st117, .st118, .st119, .st120, .st121, .st122, .st123, .st124, .st125, .st126, .st127, .st128, .st129, .st130, .st131, .st132, .st133, .st134, .st135, .st136, .st137, .st138, .st139, .st140, .st141, .st142, .st143, .st144, .st145, .st146, .st147, .st148, .st149, .st150, .st151, .st152, .st153, .st154, .st155, .st156, .st157, .st158, .st159, .st160, .st161, .st162, .st163, .st164, .st165, .st166, .st167, .st168, .st169, .st170, .st171, .st172, .st173, .st174, .st175, .st176, .st177, .st178, .st179, .st180, .st181, .st182, .st183, .st184, .st185, .st186, .st187, .st188, .st189, .st190, .st191, .st192, .st193, .st194, .st195, .st196, .st197, .st198, .st199, .st200, .st201, .st202, .st203, .st204, .st205, .st206, .st207, .st208, .st209, .st210, .st211, .st212, .st213, .st214, .st215, .st216, .st217, .st218, .st219, .st220, .st221, .st222, .st223, .st224, .st225, .st226, .st227, .st228, .st229, .st230, .st231, .st232, .st233, .st234, .st235, .st236, .st237, .st238, .st239, .st240, .st241, .st242, .st243, .st244, .st245, .st246, .st247, .st248, .st249, .st250, .st251, .st252, .st253 {
        stroke: #231815;
      }

      .st0, .st1, .st2, .st3, .st4, .st5, .st6, .st7, .st8, .st9, .st10, .st11, .st12, .st13, .st14, .st15, .st16, .st17, .st18, .st19, .st20, .st21, .st22, .st23, .st24, .st25, .st26, .st27, .st28, .st29, .st30, .st31, .st32, .st33, .st34, .st35, .st36, .st37, .st38, .st39, .st40, .st41, .st42, .st43, .st44, .st45, .st46, .st47, .st48, .st49, .st50, .st51, .st52, .st53, .st54, .st55, .st56, .st57, .st58, .st59, .st60, .st61, .st62, .st63, .st64, .st65, .st66, .st67, .st68, .st69, .st70, .st71, .st72, .st73, .st74, .st75, .st76, .st77, .st78, .st79, .st80, .st81, .st82, .st83, .st84, .st85, .st86, .st87, .st88, .st89, .st90, .st91, .st92, .st93, .st94, .st95, .st96, .st97, .st98, .st99, .st100, .st101, .st102, .st103, .st105, .st106, .st107, .st108, .st109, .st110, .st111, .st112, .st113, .st114, .st115, .st116, .st117, .st118, .st119, .st120, .st121, .st122, .st123, .st124, .st125, .st126, .st127, .st128, .st129, .st130, .st131, .st132, .st133, .st134, .st135, .st136, .st137, .st138, .st139, .st140, .st141, .st142, .st143, .st144, .st145, .st146, .st147, .st148, .st149, .st150, .st151, .st152, .st153, .st154, .st155, .st156, .st157, .st158, .st159, .st160, .st161, .st162, .st163, .st164, .st165, .st166, .st167, .st168, .st169, .st170, .st171, .st172, .st173, .st174, .st175, .st176, .st177, .st178, .st179, .st180, .st181, .st182, .st183, .st184, .st185, .st186, .st187, .st188, .st189, .st190, .st191, .st192, .st193, .st194, .st195, .st196, .st197, .st198, .st199, .st201, .st202, .st203, .st204, .st205, .st206, .st207, .st208, .st209, .st210, .st211, .st212, .st213, .st214, .st215, .st216, .st217, .st218, .st219, .st220, .st221, .st222, .st223, .st224, .st225, .st226, .st227, .st228, .st229, .st230, .st231, .st232, .st233, .st234, .st235, .st236, .st237, .st238, .st239, .st240, .st241, .st242, .st243, .st244, .st245, .st246, .st247, .st248, .st249, .st250, .st251, .st252, .st253 {
        stroke-width: .5px;
      }

      .st0, .st1, .st2, .st3, .st4, .st5, .st6, .st7, .st8, .st9, .st10, .st11, .st12, .st13, .st14, .st15, .st16, .st17, .st18, .st19, .st20, .st21, .st22, .st23, .st24, .st25, .st26, .st27, .st28, .st29, .st30, .st31, .st32, .st33, .st34, .st35, .st36, .st37, .st38, .st39, .st40, .st42, .st43, .st44, .st45, .st46, .st47, .st48, .st49, .st50, .st51, .st52, .st53, .st54, .st55, .st56, .st57, .st58, .st59, .st60, .st61, .st62, .st63, .st64, .st65, .st66, .st67, .st68, .st69, .st70, .st71, .st72, .st73, .st74, .st75, .st76, .st77, .st78, .st79, .st80, .st81, .st82, .st83, .st84, .st85, .st86, .st87, .st88, .st89, .st90, .st91, .st92, .st93, .st94, .st254, .st95, .st96, .st97, .st98, .st99, .st100, .st101, .st102, .st103, .st104, .st105, .st106, .st107, .st108, .st109, .st110, .st111, .st112, .st113, .st114, .st115, .st116, .st118, .st119, .st120, .st121, .st122, .st123, .st124, .st125, .st126, .st128, .st129, .st130, .st131, .st132, .st133, .st134, .st135, .st136, .st137, .st138, .st139, .st140, .st141, .st142, .st143, .st144, .st145, .st146, .st147, .st148, .st149, .st150, .st151, .st152, .st153, .st154, .st155, .st156, .st157, .st158, .st159, .st160, .st161, .st162, .st163, .st164, .st165, .st166, .st167, .st168, .st169, .st170, .st171, .st172, .st173, .st174, .st175, .st176, .st177, .st178, .st180, .st181, .st182, .st183, .st184, .st185, .st186, .st187, .st188, .st189, .st190, .st191, .st192, .st193, .st194, .st195, .st196, .st197, .st198, .st199, .st200, .st201, .st202, .st203, .st204, .st205, .st206, .st207, .st208, .st209, .st210, .st211, .st212, .st213, .st214, .st215, .st216, .st217, .st218, .st219, .st220, .st221, .st222, .st223, .st224, .st225, .st226, .st227, .st228, .st229, .st230, .st231, .st232, .st233, .st234, .st235, .st236, .st237, .st238, .st239, .st240, .st241, .st242, .st243, .st244, .st245, .st246, .st247, .st248, .st249, .st250, .st251, .st252, .st253 {
        stroke-miterlimit: 10;
      }

      .st1 {
        fill: #c3c4c4;
      }

      .st2 {
        fill: #6b6a6a;
      }

      .st3 {
        fill: #636262;
      }

      .st4 {
        fill: #878787;
      }

      .st5 {
        fill: #9e9e9f;
      }

      .st6 {
        fill: #5c5a5a;
      }

      .st7 {
        fill: #484545;
      }

      .st8 {
        fill: #433f3f;
      }

      .st9 {
        fill: #cfcfd0;
      }

      .st10 {
        fill: #7f7e7f;
      }

      .st11 {
        fill: #2f2725;
      }

      .st12 {
        fill: #aaabab;
      }

      .st13 {
        fill: #bababb;
      }

      .st14 {
        fill: #7e7e7e;
      }

      .st15 {
        fill: #d5d5d6;
      }

      .st16 {
        fill: #929292;
      }

      .st17 {
        fill: #a1a2a2;
      }

      .st18 {
        fill: #bdbebe;
      }

      .st19 {
        fill: #cdcece;
      }

      .st20 {
        fill: #646363;
      }

      .st21 {
        fill: #848484;
      }

      .st22 {
        fill: #b6b7b8;
      }

      .st23 {
        fill: #b5b5b6;
      }

      .st24 {
        fill: #6a6969;
      }

      .st25 {
        fill: #a0a0a1;
      }

      .st26 {
        fill: #595757;
      }

      .st27 {
        fill: #868686;
      }

      .st28 {
        fill: #b4b5b5;
      }

      .st29 {
        fill: #52504f;
      }

      .st30 {
        fill: #393433;
      }

      .st31 {
        fill: #8c8c8d;
      }

      .st32 {
        fill: #f2f2f2;
      }

      .st33 {
        fill: #eaebeb;
      }

      .st34 {
        fill: #e3e3e4;
      }

      .st35 {
        fill: #909090;
      }

      .st36 {
        fill: #d3d4d4;
      }

      .st37 {
        fill: #eee;
      }

      .st38 {
        fill: #5f5e5d;
      }

      .st39 {
        fill: #eceded;
      }

      .st40 {
        fill: #676666;
      }

      .st41 {
        fill: #403c3b;
      }

      .st41, .st127 {
        stroke-miterlimit: 10;
      }

      .st42 {
        fill: #bfc0c0;
      }

      .st43 {
        fill: #afb0b0;
      }

      .st44 {
        fill: #acacad;
      }

      .st45 {
        fill: #605f5e;
      }

      .st46 {
        fill: #626161;
      }

      .st47 {
        fill: #717071;
      }

      .st48 {
        fill: #f0f0f0;
      }

      .st49 {
        fill: #b6b6b7;
      }

      .st50 {
        fill: #332c2a;
      }

      .st51 {
        fill: #6c6b6b;
      }

      .st52 {
        fill: #fbfbfb;
      }

      .st53 {
        fill: #3b3635;
      }

      .st54 {
        fill: #eeefef;
      }

      .st55 {
        fill: #787878;
      }

      .st56 {
        fill: #a2a3a3;
      }

      .st57 {
        fill: #d6d7d7;
      }

      .st58 {
        fill: #e9e9e9;
      }

      .st59 {
        fill: #c2c3c4;
      }

      .st60 {
        fill: #b2b2b3;
      }

      .st61 {
        fill: #7c7c7c;
      }

      .st62 {
        fill: #888;
      }

      .st63 {
        fill: #797979;
      }

      .st64 {
        fill: #767575;
      }

      .st65 {
        fill: #464342;
      }

      .st66 {
        fill: #999;
      }

      .st67 {
        fill: #c2c2c3;
      }

      .st68 {
        fill: #fefefe;
      }

      .st69 {
        fill: #271d1a;
      }

      .st70 {
        fill: #cacbcb;
      }

      .st71 {
        fill: #5a5858;
      }

      .st72 {
        fill: #e4e4e4;
      }

      .st73 {
        fill: #e7e7e7;
      }

      .st74 {
        fill: #747373;
      }

      .st75 {
        fill: #444140;
      }

      .st76 {
        fill: #787777;
      }

      .st77 {
        fill: #aeafaf;
      }

      .st78 {
        fill: #f1f1f2;
      }

      .st79 {
        fill: #514e4e;
      }

      .st80 {
        fill: #727172;
      }

      .st81 {
        fill: #cbcccc;
      }

      .st82 {
        fill: #cdcdce;
      }

      .st83 {
        fill: #b2b3b4;
      }

      .st84 {
        fill: #241916;
      }

      .st85 {
        fill: #4f4c4c;
      }

      .st86 {
        fill: #c9cacb;
      }

      .st87 {
        fill: #a9aaaa;
      }

      .st88 {
        fill: #babbbc;
      }

      .st89 {
        fill: #858585;
      }

      .st90 {
        fill: #bebebf;
      }

      .st91 {
        fill: #a7a7a8;
      }

      .st92 {
        fill: #6f6f6f;
      }

      .st93 {
        fill: #322a29;
      }

      .st94 {
        fill: #adadae;
      }

      .st254 {
        stroke: #6cb92d;
      }

      .st254, .st104, .st200 {
        stroke-width: .25px;
      }

      .st254, .st255 {
        fill: #6ab82d;
      }

      .st95 {
        fill: #c5c5c6;
      }

      .st96 {
        fill: #2a211f;
      }

      .st97 {
        fill: #bcbdbd;
      }

      .st98 {
        fill: #d4d5d5;
      }

      .st99 {
        fill: #e2e2e2;
      }

      .st100 {
        fill: #838383;
      }

      .st101 {
        fill: #8f8f90;
      }

      .st102 {
        fill: #f0f1f1;
      }

      .st103 {
        fill: #efeff0;
      }

      .st104 {
        fill: none;
      }

      .st105 {
        fill: #bbbcbc;
      }

      .st106 {
        fill: #7a7a7a;
      }

      .st107 {
        fill: #706f70;
      }

      .st108 {
        fill: #413d3c;
      }

      .st109 {
        fill: #241a17;
      }

      .st110 {
        fill: #d9dada;
      }

      .st111 {
        fill: #737273;
      }

      .st112 {
        fill: #c0c1c1;
      }

      .st113 {
        fill: #2d2422;
      }

      .st114 {
        fill: #4e4b4b;
      }

      .st115 {
        fill: #b3b4b4;
      }

      .st116 {
        fill: #4a4646;
      }

      .st117 {
        fill: #545252;
      }

      .st117, .st179 {
        stroke-miterlimit: 10;
      }

      .st118 {
        fill: #4d4a49;
      }

      .st119 {
        fill: #8e8e8f;
      }

      .st120 {
        fill: #bebfc0;
      }

      .st121 {
        fill: #f9f9f9;
      }

      .st122 {
        fill: #686767;
      }

      .st123 {
        fill: #454241;
      }

      .st124 {
        fill: #a7a8a9;
      }

      .st125 {
        fill: #cecfcf;
      }

      .st126 {
        fill: #a1a1a2;
      }

      .st127 {
        fill: #251b18;
      }

      .st128 {
        fill: #969697;
      }

      .st129 {
        fill: #423e3e;
      }

      .st130 {
        fill: #6d6c6c;
      }

      .st131 {
        fill: #ababac;
      }

      .st132 {
        fill: #c4c5c5;
      }

      .st133 {
        fill: #ededee;
      }

      .st134 {
        fill: #9d9d9e;
      }

      .st135 {
        fill: #dfe0e0;
      }

      .st136 {
        fill: #29201d;
      }

      .st137 {
        fill: #979798;
      }

      .st138 {
        fill: #3f3b3a;
      }

      .st139 {
        fill: #5d5b5b;
      }

      .st140 {
        fill: #d0d1d1;
      }

      .st141 {
        fill: #3e3a39;
      }

      .st256 {
        fill: #6cb92d;
      }

      .st142 {
        fill: #dededf;
      }

      .st143 {
        fill: #4b4847;
      }

      .st144 {
        fill: #b8b9b9;
      }

      .st145 {
        fill: #37312f;
      }

      .st146 {
        fill: #e1e1e2;
      }

      .st147 {
        fill: #8b8b8c;
      }

      .st148 {
        fill: #8a8b8b;
      }

      .st149 {
        fill: #2b2320;
      }

      .st150 {
        fill: #281e1c;
      }

      .st151 {
        fill: #d0d0d1;
      }

      .st152 {
        fill: #cccccd;
      }

      .st153 {
        fill: #e5e6e6;
      }

      .st154 {
        fill: #dddede;
      }

      .st155 {
        fill: #555353;
      }

      .st156 {
        fill: #9b9c9c;
      }

      .st157 {
        fill: #d2d2d3;
      }

      .st158 {
        fill: #777676;
      }

      .st159 {
        fill: #939494;
      }

      .st160 {
        fill: #fdfdfd;
      }

      .st161 {
        fill: #e7e8e8;
      }

      .st162 {
        fill: #f4f4f4;
      }

      .st163 {
        fill: #c1c2c2;
      }

      .st164 {
        fill: #c9c9ca;
      }

      .st165 {
        fill: #362f2e;
      }

      .st166 {
        fill: #e2e3e3;
      }

      .st167 {
        fill: #565454;
      }

      .st168 {
        fill: #231815;
      }

      .st169 {
        fill: #dcdddd;
      }

      .st170 {
        fill: #383231;
      }

      .st171 {
        fill: #f5f5f5;
      }

      .st172 {
        fill: #b1b1b2;
      }

      .st173 {
        fill: #d3d3d4;
      }

      .st174 {
        fill: #a6a6a7;
      }

      .st175 {
        fill: #f7f8f8;
      }

      .st176 {
        fill: #f5f5f6;
      }

      .st177 {
        fill: #949495;
      }

      .st178 {
        fill: #5e5c5c;
      }

      .st179 {
        fill: #261c19;
      }

      .st180 {
        fill: #a5a5a6;
      }

      .st181 {
        fill: #5b5959;
      }

      .st182, .st200 {
        fill: #fff;
      }

      .st183 {
        fill: #696868;
      }

      .st184 {
        fill: #dadbdb;
      }

      .st185 {
        fill: #ececec;
      }

      .st186 {
        fill: #585656;
      }

      .st187 {
        fill: #4c4948;
      }

      .st188 {
        fill: #fafbfb;
      }

      .st189 {
        fill: #d8d8d9;
      }

      .st190 {
        fill: #f3f3f4;
      }

      .st191 {
        fill: #8a8a8a;
      }

      .st192 {
        fill: #7b7b7b;
      }

      .st193 {
        fill: #e6e6e7;
      }

      .st194 {
        fill: #b0b0b1;
      }

      .st195 {
        fill: #919191;
      }

      .st196 {
        fill: #939393;
      }

      .st197 {
        fill: #d1d2d2;
      }

      .st198 {
        fill: #342e2c;
      }

      .st199 {
        fill: #f7f7f7;
      }

      .st201 {
        fill: #757474;
      }

      .st202 {
        fill: #9c9d9d;
      }

      .st203 {
        fill: #b9baba;
      }

      .st204 {
        fill: #9a9b9b;
      }

      .st205 {
        fill: #959596;
      }

      .st206 {
        fill: #b7b8b8;
      }

      .st207 {
        fill: #dfdfdf;
      }

      .st208 {
        fill: #9a9a9a;
      }

      .st209 {
        fill: #807f80;
      }

      .st210 {
        fill: #c6c6c7;
      }

      .st211 {
        fill: #818182;
      }

      .st212 {
        fill: #2e2624;
      }

      .st213 {
        fill: #8d8d8e;
      }

      .st214 {
        fill: #61605f;
      }

      .st215 {
        fill: #e9eaea;
      }

      .st216 {
        fill: #c8c9c9;
      }

      .st217 {
        fill: #898989;
      }

      .st218 {
        fill: #e4e5e5;
      }

      .st219 {
        fill: #231916;
      }

      .st220 {
        fill: #474443;
      }

      .st221 {
        fill: #989899;
      }

      .st222 {
        fill: #f3f3f3;
      }

      .st223 {
        fill: #adaeaf;
      }

      .st224 {
        fill: #575555;
      }

      .st225 {
        fill: #dcdcdd;
      }

      .st226 {
        fill: #fafafa;
      }

      .st227 {
        fill: #a4a5a5;
      }

      .st228 {
        fill: #504d4d;
      }

      .st229 {
        fill: #fcfcfc;
      }

      .st230 {
        fill: #c7c8c8;
      }

      .st231 {
        fill: #302927;
      }

      .st232 {
        fill: #ebebeb;
      }

      .st233 {
        fill: #535150;
      }

      .st234 {
        fill: #dbdbdc;
      }

      .st235 {
        fill: #9f9fa0;
      }

      .st236 {
        fill: #e0e1e1;
      }

      .st237 {
        fill: #818081;
      }

      .st238 {
        fill: #f6f6f6;
      }

      .st239 {
        fill: #666565;
      }

      .st240 {
        fill: #d9d9da;
      }

      .st241 {
        fill: #828283;
      }

      .st242 {
        fill: #7d7d7d;
      }

      .st243 {
        fill: #f8f8f8;
      }

      .st244 {
        fill: #e8e8e9;
      }

      .st245 {
        fill: #d7d8d8;
      }

      .st246 {
        fill: #6d6d6d;
      }

      .st247 {
        fill: #c6c7c8;
      }

      .st248 {
        fill: #3c3736;
      }

      .st249 {
        fill: #6e6e6e;
      }

      .st250 {
        fill: #a8a9a9;
      }

      .st251 {
        fill: #a3a4a4;
      }

      .st252 {
        fill: #656464;
      }

      .st253 {
        fill: #3d3938;
      }
    </style>
  </defs>
  <line class="st104"/>
  <line class="st104"/>
  <g>
    <path class="st168" d="M410.69,471.32l-92.94-24.05c-1.34-.35-2.24-1.54-2.23-2.95l.76-90.59c.02-2.19,2.16-3.88,4.25-3.35l92.94,24.05c1.34.35,2.24,1.54,2.23,2.95l-.76,90.59c-.02,2.19-2.16,3.88-4.25,3.35Z"/>
    <path class="st219" d="M410.46,471.47l-93.15-24.1c-1.34-.35-2.24-1.54-2.23-2.95l.76-90.79c.02-2.2,2.17-3.89,4.26-3.35l93.15,24.1c1.34.35,2.24,1.54,2.23,2.95l-.76,90.79c-.02,2.2-2.17,3.89-4.26,3.35Z"/>
    <path class="st84" d="M410.22,471.62l-93.35-24.15c-1.34-.35-2.25-1.54-2.24-2.96l.76-90.99c.02-2.2,2.17-3.9,4.27-3.36l93.35,24.15c1.34.35,2.25,1.54,2.24,2.96l-.76,90.99c-.02,2.2-2.17,3.9-4.27,3.36Z"/>
    <path class="st109" d="M409.98,471.77l-93.55-24.21c-1.35-.35-2.25-1.55-2.24-2.97l.76-91.19c.02-2.21,2.18-3.91,4.27-3.37l93.55,24.21c1.35.35,2.25,1.55,2.24,2.97l-.76,91.19c-.02,2.21-2.18,3.91-4.27,3.37Z"/>
    <path class="st127" d="M409.74,471.92l-93.76-24.26c-1.35-.35-2.26-1.55-2.25-2.97l.76-91.38c.02-2.21,2.18-3.92,4.28-3.38l93.76,24.26c1.35.35,2.26,1.55,2.25,2.97l-.76,91.38c-.02,2.21-2.18,3.92-4.28,3.38Z"/>
    <path class="st179" d="M409.51,472.07l-93.96-24.31c-1.35-.35-2.26-1.55-2.25-2.98l.76-91.58c.02-2.22,2.19-3.93,4.29-3.38l93.96,24.31c1.35.35,2.26,1.55,2.25,2.98l-.76,91.58c-.02,2.22-2.19,3.93-4.29,3.38Z"/>
    <path class="st69" d="M409.27,472.22l-94.16-24.36c-1.36-.35-2.27-1.56-2.26-2.99l.76-91.78c.02-2.22,2.19-3.94,4.3-3.39l94.16,24.36c1.36.35,2.27,1.56,2.26,2.99l-.76,91.78c-.02,2.22-2.19,3.94-4.3,3.39Z"/>
    <path class="st150" d="M409.03,472.38l-94.37-24.42c-1.36-.35-2.27-1.56-2.26-2.99l.77-91.98c.02-2.23,2.2-3.94,4.31-3.4l94.37,24.42c1.36.35,2.27,1.56,2.26,2.99l-.77,91.98c-.02,2.23-2.2,3.94-4.31,3.4Z"/>
    <path class="st136" d="M408.8,472.53l-94.57-24.47c-1.36-.35-2.28-1.56-2.27-3l.77-92.18c.02-2.23,2.2-3.95,4.32-3.4l94.57,24.47c1.36.35,2.28,1.56,2.27,3l-.77,92.18c-.02,2.23-2.2,3.95-4.32,3.4Z"/>
    <path class="st96" d="M408.56,472.68l-94.77-24.52c-1.36-.35-2.28-1.57-2.27-3.01l.77-92.37c.02-2.24,2.21-3.96,4.33-3.41l94.77,24.52c1.36.35,2.28,1.57,2.27,3.01l-.77,92.37c-.02,2.24-2.21,3.96-4.33,3.41Z"/>
    <path class="st149" d="M408.32,472.83l-94.98-24.57c-1.37-.35-2.29-1.57-2.27-3.01l.77-92.57c.02-2.24,2.21-3.97,4.34-3.42l94.98,24.57c1.37.35,2.29,1.57,2.27,3.01l-.77,92.57c-.02,2.24-2.21,3.97-4.34,3.42Z"/>
    <path class="st113" d="M408.08,472.98l-95.18-24.63c-1.37-.35-2.29-1.57-2.28-3.02l.77-92.77c.02-2.25,2.22-3.98,4.35-3.43l95.18,24.63c1.37.35,2.29,1.57,2.28,3.02l-.77,92.77c-.02,2.25-2.22,3.98-4.35,3.43Z"/>
    <path class="st212" d="M407.85,473.13l-95.38-24.68c-1.37-.36-2.3-1.58-2.28-3.02l.77-92.97c.02-2.25,2.22-3.99,4.36-3.43l95.38,24.68c1.37.36,2.3,1.58,2.28,3.02l-.77,92.97c-.02,2.25-2.22,3.99-4.36,3.43Z"/>
    <path class="st11" d="M407.61,473.28l-95.59-24.73c-1.38-.36-2.3-1.58-2.29-3.03l.78-93.17c.02-2.26,2.23-4,4.37-3.44l95.59,24.73c1.38.36,2.3,1.58,2.29,3.03l-.78,93.17c-.02,2.26-2.23,4-4.37,3.44Z"/>
    <path class="st231" d="M407.37,473.43l-95.79-24.79c-1.38-.36-2.31-1.58-2.29-3.04l.78-93.37c.02-2.26,2.23-4,4.38-3.45l95.79,24.79c1.38.36,2.31,1.58,2.29,3.04l-.78,93.37c-.02,2.26-2.23,4-4.38,3.45Z"/>
    <path class="st93" d="M407.14,473.59l-95.99-24.84c-1.38-.36-2.31-1.59-2.3-3.04l.78-93.56c.02-2.27,2.24-4.01,4.39-3.46l95.99,24.84c1.38.36,2.31,1.59,2.3,3.04l-.78,93.56c-.02,2.27-2.24,4.01-4.39,3.46Z"/>
    <path class="st50" d="M406.9,473.74l-96.2-24.89c-1.38-.36-2.32-1.59-2.3-3.05l.78-93.76c.02-2.27,2.24-4.02,4.4-3.46l96.2,24.89c1.38.36,2.32,1.59,2.3,3.05l-.78,93.76c-.02,2.27-2.24,4.02-4.4,3.46Z"/>
    <path class="st198" d="M406.66,473.89l-96.4-24.94c-1.39-.36-2.32-1.59-2.31-3.06l.78-93.96c.02-2.28,2.24-4.03,4.4-3.47l96.4,24.94c1.39.36,2.32,1.59,2.31,3.06l-.78,93.96c-.02,2.28-2.24,4.03-4.4,3.47Z"/>
    <path class="st165" d="M406.42,474.04l-96.6-25c-1.39-.36-2.33-1.6-2.31-3.06l.78-94.16c.02-2.28,2.25-4.04,4.41-3.48l96.6,25c1.39.36,2.33,1.6,2.31,3.06l-.78,94.16c-.02,2.28-2.25,4.04-4.41,3.48Z"/>
    <path class="st145" d="M406.19,474.19l-96.81-25.05c-1.39-.36-2.33-1.6-2.32-3.07l.79-94.36c.02-2.29,2.25-4.05,4.42-3.49l96.81,25.05c1.39.36,2.33,1.6,2.32,3.07l-.79,94.36c-.02,2.29-2.25,4.05-4.42,3.49Z"/>
    <path class="st170" d="M405.95,474.34l-97.01-25.1c-1.4-.36-2.34-1.61-2.32-3.08l.79-94.55c.02-2.29,2.26-4.05,4.43-3.49l97.01,25.1c1.4.36,2.34,1.61,2.32,3.08l-.79,94.55c-.02,2.29-2.26,4.05-4.43,3.49Z"/>
    <path class="st30" d="M405.71,474.49l-97.21-25.15c-1.4-.36-2.34-1.61-2.33-3.08l.79-94.75c.02-2.29,2.26-4.06,4.44-3.5l97.21,25.15c1.4.36,2.34,1.61,2.33,3.08l-.79,94.75c-.02,2.29-2.26,4.06-4.44,3.5Z"/>
    <path class="st53" d="M405.47,474.65l-97.42-25.21c-1.4-.36-2.35-1.61-2.33-3.09l.79-94.95c.02-2.3,2.27-4.07,4.45-3.51l97.42,25.21c1.4.36,2.35,1.61,2.33,3.09l-.79,94.95c-.02,2.3-2.27,4.07-4.45,3.51Z"/>
    <path class="st248" d="M405.24,474.8l-97.62-25.26c-1.41-.36-2.35-1.62-2.34-3.1l.79-95.15c.02-2.3,2.27-4.08,4.46-3.51l97.62,25.26c1.41.36,2.35,1.62,2.34,3.1l-.79,95.15c-.02,2.3-2.27,4.08-4.46,3.51Z"/>
    <path class="st253" d="M405,474.95l-97.82-25.31c-1.41-.36-2.36-1.62-2.34-3.1l.79-95.35c.02-2.31,2.28-4.09,4.47-3.52l97.82,25.31c1.41.36,2.36,1.62,2.34,3.1l-.79,95.35c-.02,2.31-2.28,4.09-4.47,3.52Z"/>
    <path class="st141" d="M404.76,475.1l-98.03-25.36c-1.41-.37-2.36-1.62-2.35-3.11l.8-95.55c.02-2.31,2.28-4.1,4.48-3.53l98.03,25.36c1.41.37,2.36,1.62,2.35,3.11l-.8,95.55c-.02,2.31-2.28,4.1-4.48,3.53Z"/>
    <path class="st138" d="M404.53,475.25l-98.23-25.42c-1.41-.37-2.37-1.63-2.35-3.11l.8-95.74c.02-2.32,2.29-4.11,4.49-3.54l98.23,25.42c1.41.37,2.37,1.63,2.35,3.11l-.8,95.74c-.02,2.32-2.29,4.11-4.49,3.54Z"/>
    <path class="st41" d="M404.29,475.4l-98.43-25.47c-1.42-.37-2.37-1.63-2.36-3.12l.8-95.94c.02-2.32,2.29-4.11,4.5-3.54l98.43,25.47c1.42.37,2.37,1.63,2.36,3.12l-.8,95.94c-.02,2.32-2.29,4.11-4.5,3.54Z"/>
    <path class="st108" d="M404.05,475.55l-98.64-25.52c-1.42-.37-2.37-1.63-2.36-3.13l.8-96.14c.02-2.33,2.3-4.12,4.51-3.55l98.64,25.52c1.42.37,2.37,1.63,2.36,3.13l-.8,96.14c-.02,2.33-2.3,4.12-4.51,3.55Z"/>
    <path class="st129" d="M403.81,475.7l-98.84-25.57c-1.42-.37-2.38-1.64-2.37-3.13l.8-96.34c.02-2.33,2.3-4.13,4.52-3.56l98.84,25.57c1.42.37,2.38,1.64,2.37,3.13l-.8,96.34c-.02,2.33-2.3,4.13-4.52,3.56Z"/>
    <path class="st8" d="M403.58,475.86l-99.04-25.63c-1.43-.37-2.38-1.64-2.37-3.14l.8-96.54c.02-2.34,2.31-4.14,4.53-3.57l99.04,25.63c1.43.37,2.38,1.64,2.37,3.14l-.8,96.54c-.02,2.34-2.31,4.14-4.53,3.57Z"/>
    <path class="st75" d="M403.34,476.01l-99.25-25.68c-1.43-.37-2.39-1.64-2.38-3.15l.81-96.73c.02-2.34,2.31-4.15,4.53-3.57l99.25,25.68c1.43.37,2.39,1.64,2.38,3.15l-.81,96.73c-.02,2.34-2.31,4.15-4.53,3.57Z"/>
    <path class="st123" d="M403.1,476.16l-99.45-25.73c-1.43-.37-2.39-1.65-2.38-3.15l.81-96.93c.02-2.35,2.32-4.16,4.54-3.58l99.45,25.73c1.43.37,2.39,1.65,2.38,3.15l-.81,96.93c-.02,2.35-2.32,4.16-4.54,3.58Z"/>
    <path class="st65" d="M402.86,476.31l-99.65-25.78c-1.43-.37-2.4-1.65-2.39-3.16l.81-97.13c.02-2.35,2.32-4.17,4.55-3.59l99.65,25.78c1.43.37,2.4,1.65,2.39,3.16l-.81,97.13c-.02,2.35-2.32,4.17-4.55,3.59Z"/>
    <path class="st220" d="M402.63,476.46l-99.85-25.84c-1.44-.37-2.4-1.65-2.39-3.17l.81-97.33c.02-2.36,2.33-4.17,4.56-3.59l99.85,25.84c1.44.37,2.4,1.65,2.39,3.17l-.81,97.33c-.02,2.36-2.33,4.17-4.56,3.59Z"/>
    <path class="st7" d="M402.39,476.61l-100.06-25.89c-1.44-.37-2.41-1.66-2.4-3.17l.81-97.53c.02-2.36,2.33-4.18,4.57-3.6l100.06,25.89c1.44.37,2.41,1.66,2.4,3.17l-.81,97.53c-.02,2.36-2.33,4.18-4.57,3.6Z"/>
    <path class="st116" d="M402.15,476.76l-100.26-25.94c-1.44-.37-2.41-1.66-2.4-3.18l.81-97.72c.02-2.37,2.33-4.19,4.58-3.61l100.26,25.94c1.44.37,2.41,1.66,2.4,3.18l-.81,97.72c-.02,2.37-2.33,4.19-4.58,3.61Z"/>
    <path class="st143" d="M401.92,476.92l-100.46-26c-1.45-.37-2.42-1.66-2.41-3.19l.82-97.92c.02-2.37,2.34-4.2,4.59-3.62l100.46,26c1.45.37,2.42,1.66,2.41,3.19l-.82,97.92c-.02,2.37-2.34,4.2-4.59,3.62Z"/>
    <path class="st187" d="M401.68,477.07l-100.67-26.05c-1.45-.37-2.42-1.67-2.41-3.19l.82-98.12c.02-2.38,2.34-4.21,4.6-3.62l100.67,26.05c1.45.37,2.42,1.67,2.41,3.19l-.82,98.12c-.02,2.38-2.34,4.21-4.6,3.62Z"/>
    <path class="st118" d="M401.44,477.22l-100.87-26.1c-1.45-.38-2.43-1.67-2.42-3.2l.82-98.32c.02-2.38,2.35-4.22,4.61-3.63l100.87,26.1c1.45.38,2.43,1.67,2.42,3.2l-.82,98.32c-.02,2.38-2.35,4.22-4.61,3.63Z"/>
    <path class="st114" d="M401.2,477.37l-101.07-26.15c-1.45-.38-2.43-1.67-2.42-3.21l.82-98.52c.02-2.39,2.35-4.22,4.62-3.64l101.07,26.15c1.45.38,2.43,1.67,2.42,3.21l-.82,98.52c-.02,2.39-2.35,4.22-4.62,3.64Z"/>
    <path class="st85" d="M400.97,477.52l-101.28-26.21c-1.46-.38-2.44-1.68-2.43-3.21l.82-98.72c.02-2.39,2.36-4.23,4.63-3.65l101.28,26.21c1.46.38,2.44,1.68,2.43,3.21l-.82,98.72c-.02,2.39-2.36,4.23-4.63,3.65Z"/>
    <path class="st228" d="M400.73,477.67l-101.48-26.26c-1.46-.38-2.44-1.68-2.43-3.22l.82-98.91c.02-2.4,2.36-4.24,4.64-3.65l101.48,26.26c1.46.38,2.44,1.68,2.43,3.22l-.82,98.91c-.02,2.4-2.36,4.24-4.64,3.65Z"/>
    <path class="st79" d="M400.49,477.82l-101.68-26.31c-1.46-.38-2.45-1.68-2.44-3.22l.83-99.11c.02-2.4,2.37-4.25,4.65-3.66l101.68,26.31c1.46.38,2.45,1.68,2.44,3.22l-.83,99.11c-.02,2.4-2.37,4.25-4.65,3.66Z"/>
    <path class="st29" d="M400.26,477.97l-101.89-26.36c-1.47-.38-2.45-1.69-2.44-3.23l.83-99.31c.02-2.41,2.37-4.26,4.66-3.67l101.89,26.36c1.47.38,2.45,1.69,2.44,3.23l-.83,99.31c-.02,2.41-2.37,4.26-4.66,3.67Z"/>
    <path class="st233" d="M400.02,478.13l-102.09-26.42c-1.47-.38-2.46-1.69-2.45-3.24l.83-99.51c.02-2.41,2.38-4.27,4.66-3.68l102.09,26.42c1.47.38,2.46,1.69,2.45,3.24l-.83,99.51c-.02,2.41-2.38,4.27-4.66,3.68Z"/>
    <path class="st117" d="M399.78,478.28l-102.29-26.47c-1.47-.38-2.46-1.69-2.45-3.24l.83-99.71c.02-2.41,2.38-4.28,4.67-3.68l102.29,26.47c1.47.38,2.46,1.69,2.45,3.24l-.83,99.71c-.02,2.41-2.38,4.28-4.67,3.68Z"/>
    <path class="st155" d="M399.54,478.43l-102.5-26.52c-1.48-.38-2.47-1.7-2.46-3.25l.83-99.9c.02-2.42,2.39-4.28,4.68-3.69l102.5,26.52c1.48.38,2.47,1.7,2.46,3.25l-.83,99.9c-.02,2.42-2.39,4.28-4.68,3.69Z"/>
    <path class="st167" d="M399.31,478.58l-102.7-26.57c-1.48-.38-2.47-1.7-2.46-3.26l.83-100.1c.02-2.42,2.39-4.29,4.69-3.7l102.7,26.57c1.48.38,2.47,1.7,2.46,3.26l-.83,100.1c-.02,2.42-2.39,4.29-4.69,3.7Z"/>
    <path class="st224" d="M399.07,478.73l-102.9-26.63c-1.48-.38-2.48-1.7-2.46-3.26l.84-100.3c.02-2.43,2.4-4.3,4.7-3.7l102.9,26.63c1.48.38,2.48,1.7,2.46,3.26l-.84,100.3c-.02,2.43-2.4,4.3-4.7,3.7Z"/>
    <path class="st186" d="M398.83,478.88l-103.11-26.68c-1.48-.38-2.48-1.71-2.47-3.27l.84-100.5c.02-2.43,2.4-4.31,4.71-3.71l103.11,26.68c1.48.38,2.48,1.71,2.47,3.27l-.84,100.5c-.02,2.43-2.4,4.31-4.71,3.71Z"/>
    <path class="st26" d="M398.59,479.03l-103.31-26.73c-1.49-.38-2.49-1.71-2.47-3.28l.84-100.7c.02-2.44,2.41-4.32,4.72-3.72l103.31,26.73c1.49.38,2.49,1.71,2.47,3.28l-.84,100.7c-.02,2.44-2.41,4.32-4.72,3.72Z"/>
    <path class="st71" d="M398.36,479.19l-103.51-26.78c-1.49-.39-2.49-1.71-2.48-3.28l.84-100.89c.02-2.44,2.41-4.33,4.73-3.73l103.51,26.78c1.49.39,2.49,1.71,2.48,3.28l-.84,100.89c-.02,2.44-2.41,4.33-4.73,3.73Z"/>
    <path class="st181" d="M398.12,479.34l-103.72-26.84c-1.49-.39-2.5-1.72-2.48-3.29l.84-101.09c.02-2.45,2.42-4.34,4.74-3.73l103.72,26.84c1.49.39,2.5,1.72,2.48,3.29l-.84,101.09c-.02,2.45-2.42,4.34-4.74,3.73Z"/>
    <path class="st6" d="M397.88,479.49l-103.92-26.89c-1.5-.39-2.5-1.72-2.49-3.3l.84-101.29c.02-2.45,2.42-4.34,4.75-3.74l103.92,26.89c1.5.39,2.5,1.72,2.49,3.3l-.84,101.29c-.02,2.45-2.42,4.34-4.75,3.74Z"/>
    <path class="st139" d="M397.65,479.64l-104.12-26.94c-1.5-.39-2.51-1.72-2.49-3.3l.85-101.49c.02-2.46,2.42-4.35,4.76-3.75l104.12,26.94c1.5.39,2.51,1.72,2.49,3.3l-.85,101.49c-.02,2.46-2.42,4.35-4.76,3.75Z"/>
    <path class="st178" d="M397.41,479.79l-104.33-26.99c-1.5-.39-2.51-1.73-2.5-3.31l.85-101.69c.02-2.46,2.43-4.36,4.77-3.76l104.33,26.99c1.5.39,2.51,1.73,2.5,3.31l-.85,101.69c-.02,2.46-2.43,4.36-4.77,3.76Z"/>
    <path class="st38" d="M397.17,479.94l-104.53-27.05c-1.5-.39-2.52-1.73-2.5-3.31l.85-101.89c.02-2.47,2.43-4.37,4.78-3.76l104.53,27.05c1.5.39,2.52,1.73,2.5,3.31l-.85,101.89c-.02,2.47-2.43,4.37-4.78,3.76Z"/>
    <path class="st45" d="M396.93,480.09l-104.73-27.1c-1.51-.39-2.52-1.73-2.51-3.32l.85-102.08c.02-2.47,2.44-4.38,4.79-3.77l104.73,27.1c1.51.39,2.52,1.73,2.51,3.32l-.85,102.08c-.02,2.47-2.44,4.38-4.79,3.77Z"/>
    <path class="st214" d="M396.7,480.24l-104.94-27.15c-1.51-.39-2.53-1.74-2.51-3.33l.85-102.28c.02-2.48,2.44-4.39,4.79-3.78l104.94,27.15c1.51.39,2.53,1.74,2.51,3.33l-.85,102.28c-.02,2.48-2.44,4.39-4.79,3.78Z"/>
    <path class="st46" d="M396.46,480.4l-105.14-27.2c-1.51-.39-2.53-1.74-2.52-3.33l.85-102.48c.02-2.48,2.45-4.39,4.8-3.79l105.14,27.2c1.51.39,2.53,1.74,2.52,3.33l-.85,102.48c-.02,2.48-2.45,4.39-4.8,3.79Z"/>
    <path class="st3" d="M396.22,480.55l-105.34-27.26c-1.52-.39-2.54-1.74-2.52-3.34l.86-102.68c.02-2.49,2.45-4.4,4.81-3.79l105.34,27.26c1.52.39,2.54,1.74,2.52,3.34l-.86,102.68c-.02,2.49-2.45,4.4-4.81,3.79Z"/>
    <path class="st20" d="M395.99,480.7l-105.55-27.31c-1.52-.39-2.54-1.75-2.53-3.35l.86-102.88c.02-2.49,2.46-4.41,4.82-3.8l105.55,27.31c1.52.39,2.54,1.75,2.53,3.35l-.86,102.88c-.02,2.49-2.46,4.41-4.82,3.8Z"/>
    <path class="st252" d="M395.75,480.85l-105.75-27.36c-1.52-.39-2.55-1.75-2.53-3.35l.86-103.07c.02-2.5,2.46-4.42,4.83-3.81l105.75,27.36c1.52.39,2.55,1.75,2.53,3.35l-.86,103.07c-.02,2.5-2.46,4.42-4.83,3.81Z"/>
    <path class="st239" d="M395.51,481l-105.95-27.42c-1.53-.39-2.55-1.75-2.54-3.36l.86-103.27c.02-2.5,2.47-4.43,4.84-3.81l105.95,27.42c1.53.39,2.55,1.75,2.54,3.36l-.86,103.27c-.02,2.5-2.47,4.43-4.84,3.81Z"/>
    <path class="st40" d="M395.27,481.15l-106.16-27.47c-1.53-.4-2.56-1.76-2.54-3.37l.86-103.47c.02-2.51,2.47-4.44,4.85-3.82l106.16,27.47c1.53.4,2.56,1.76,2.54,3.37l-.86,103.47c-.02,2.51-2.47,4.44-4.85,3.82Z"/>
    <path class="st122" d="M395.04,481.3l-106.36-27.52c-1.53-.4-2.56-1.76-2.55-3.37l.86-103.67c.02-2.51,2.48-4.45,4.86-3.83l106.36,27.52c1.53.4,2.56,1.76,2.55,3.37l-.86,103.67c-.02,2.51-2.48,4.45-4.86,3.83Z"/>
    <path class="st183" d="M394.8,481.46l-106.56-27.57c-1.53-.4-2.57-1.76-2.55-3.38l.87-103.87c.02-2.52,2.48-4.45,4.87-3.84l106.56,27.57c1.53.4,2.57,1.76,2.55,3.38l-.87,103.87c-.02,2.52-2.48,4.45-4.87,3.84Z"/>
    <path class="st24" d="M394.56,481.61l-106.77-27.63c-1.54-.4-2.57-1.77-2.56-3.39l.87-104.07c.02-2.52,2.49-4.46,4.88-3.84l106.77,27.63c1.54.4,2.57,1.77,2.56,3.39l-.87,104.07c-.02,2.52-2.49,4.46-4.88,3.84Z"/>
    <path class="st2" d="M394.32,481.76l-106.97-27.68c-1.54-.4-2.58-1.77-2.56-3.39l.87-104.26c.02-2.53,2.49-4.47,4.89-3.85l106.97,27.68c1.54.4,2.58,1.77,2.56,3.39l-.87,104.26c-.02,2.53-2.49,4.47-4.89,3.85Z"/>
    <path class="st51" d="M394.09,481.91l-107.17-27.73c-1.54-.4-2.58-1.77-2.57-3.4l.87-104.46c.02-2.53,2.5-4.48,4.9-3.86l107.17,27.73c1.54.4,2.58,1.77,2.57,3.4l-.87,104.46c-.02,2.53-2.5,4.48-4.9,3.86Z"/>
    <path class="st130" d="M393.85,482.06l-107.38-27.78c-1.55-.4-2.59-1.78-2.57-3.4l.87-104.66c.02-2.53,2.5-4.49,4.91-3.87l107.38,27.78c1.55.4,2.59,1.78,2.57,3.4l-.87,104.66c-.02,2.53-2.5,4.49-4.91,3.87Z"/>
    <path class="st246" d="M393.61,482.21l-107.58-27.84c-1.55-.4-2.59-1.78-2.58-3.41l.87-104.86c.02-2.54,2.51-4.5,4.92-3.87l107.58,27.84c1.55.4,2.59,1.78,2.58,3.41l-.87,104.86c-.02,2.54-2.51,4.5-4.92,3.87Z"/>
    <path class="st249" d="M393.38,482.36l-107.78-27.89c-1.55-.4-2.6-1.78-2.58-3.42l.88-105.06c.02-2.54,2.51-4.51,4.92-3.88l107.78,27.89c1.55.4,2.6,1.78,2.58,3.42l-.88,105.06c-.02,2.54-2.51,4.51-4.92,3.88Z"/>
    <path class="st92" d="M393.14,482.51l-107.99-27.94c-1.55-.4-2.6-1.79-2.59-3.42l.88-105.25c.02-2.55,2.51-4.51,4.93-3.89l107.99,27.94c1.55.4,2.6,1.79,2.59,3.42l-.88,105.25c-.02,2.55-2.51,4.51-4.93,3.89Z"/>
    <path class="st107" d="M392.9,482.67l-108.19-27.99c-1.56-.4-2.61-1.79-2.59-3.43l.88-105.45c.02-2.55,2.52-4.52,4.94-3.89l108.19,27.99c1.56.4,2.61,1.79,2.59,3.43l-.88,105.45c-.02,2.55-2.52,4.52-4.94,3.89Z"/>
    <path class="st47" d="M392.66,482.82l-108.39-28.05c-1.56-.4-2.61-1.79-2.6-3.44l.88-105.65c.02-2.56,2.52-4.53,4.95-3.9l108.39,28.05c1.56.4,2.61,1.79,2.6,3.44l-.88,105.65c-.02,2.56-2.52,4.53-4.95,3.9Z"/>
    <path class="st80" d="M392.43,482.97l-108.6-28.1c-1.56-.4-2.61-1.8-2.6-3.44l.88-105.85c.02-2.56,2.53-4.54,4.96-3.91l108.6,28.1c1.56.4,2.61,1.8,2.6,3.44l-.88,105.85c-.02,2.56-2.53,4.54-4.96,3.91Z"/>
    <path class="st111" d="M392.19,483.12l-108.8-28.15c-1.57-.41-2.62-1.8-2.61-3.45l.88-106.05c.02-2.57,2.53-4.55,4.97-3.92l108.8,28.15c1.57.41,2.62,1.8,2.61,3.45l-.88,106.05c-.02,2.57-2.53,4.55-4.97,3.92Z"/>
    <path class="st74" d="M391.95,483.27l-109-28.2c-1.57-.41-2.62-1.8-2.61-3.46l.89-106.24c.02-2.57,2.54-4.56,4.98-3.92l109,28.2c1.57.41,2.62,1.8,2.61,3.46l-.89,106.24c-.02,2.57-2.54,4.56-4.98,3.92Z"/>
    <path class="st201" d="M391.72,483.42l-109.21-28.26c-1.57-.41-2.63-1.81-2.62-3.46l.89-106.44c.02-2.58,2.54-4.56,4.99-3.93l109.21,28.26c1.57.41,2.63,1.81,2.62,3.46l-.89,106.44c-.02,2.58-2.54,4.56-4.99,3.93Z"/>
    <path class="st64" d="M391.48,483.57l-109.41-28.31c-1.57-.41-2.63-1.81-2.62-3.47l.89-106.64c.02-2.58,2.55-4.57,5-3.94l109.41,28.31c1.57.41,2.63,1.81,2.62,3.47l-.89,106.64c-.02,2.58-2.55,4.57-5,3.94Z"/>
    <path class="st158" d="M391.24,483.73l-109.61-28.36c-1.58-.41-2.64-1.81-2.63-3.48l.89-106.84c.02-2.59,2.55-4.58,5.01-3.95l109.61,28.36c1.58.41,2.64,1.81,2.63,3.48l-.89,106.84c-.02,2.59-2.55,4.58-5.01,3.95Z"/>
    <path class="st76" d="M391,483.88l-109.82-28.41c-1.58-.41-2.64-1.82-2.63-3.48l.89-107.04c.02-2.59,2.56-4.59,5.02-3.95l109.82,28.41c1.58.41,2.64,1.82,2.63,3.48l-.89,107.04c-.02,2.59-2.56,4.59-5.02,3.95Z"/>
    <path class="st55" d="M390.77,484.03l-110.02-28.47c-1.58-.41-2.65-1.82-2.64-3.49l.89-107.24c.02-2.6,2.56-4.6,5.03-3.96l110.02,28.47c1.58.41,2.65,1.82,2.64,3.49l-.89,107.24c-.02,2.6-2.56,4.6-5.03,3.96Z"/>
    <path class="st63" d="M390.53,484.18l-110.22-28.52c-1.59-.41-2.65-1.82-2.64-3.5l.9-107.43c.02-2.6,2.57-4.61,5.04-3.97l110.22,28.52c1.59.41,2.65,1.82,2.64,3.5l-.9,107.43c-.02,2.6-2.57,4.61-5.04,3.97Z"/>
    <path class="st106" d="M390.29,484.33l-110.43-28.57c-1.59-.41-2.66-1.83-2.64-3.5l.9-107.63c.02-2.61,2.57-4.62,5.05-3.98l110.43,28.57c1.59.41,2.66,1.83,2.64,3.5l-.9,107.63c-.02,2.61-2.57,4.62-5.05,3.98Z"/>
    <path class="st192" d="M390.05,484.48l-110.63-28.62c-1.59-.41-2.66-1.83-2.65-3.51l.9-107.83c.02-2.61,2.58-4.62,5.05-3.98l110.63,28.62c1.59.41,2.66,1.83,2.65,3.51l-.9,107.83c-.02,2.61-2.58,4.62-5.05,3.98Z"/>
    <path class="st61" d="M389.82,484.63l-110.83-28.68c-1.6-.41-2.67-1.83-2.65-3.51l.9-108.03c.02-2.62,2.58-4.63,5.06-3.99l110.83,28.68c1.6.41,2.67,1.83,2.65,3.51l-.9,108.03c-.02,2.62-2.58,4.63-5.06,3.99Z"/>
    <path class="st242" d="M389.58,484.78l-111.04-28.73c-1.6-.41-2.67-1.84-2.66-3.52l.9-108.23c.02-2.62,2.59-4.64,5.07-4l111.04,28.73c1.6.41,2.67,1.84,2.66,3.52l-.9,108.23c-.02,2.62-2.59,4.64-5.07,4Z"/>
    <path class="st14" d="M389.34,484.94l-111.24-28.78c-1.6-.41-2.68-1.84-2.66-3.53l.9-108.42c.02-2.63,2.59-4.65,5.08-4l111.24,28.78c1.6.41,2.68,1.84,2.66,3.53l-.9,108.42c-.02,2.63-2.59,4.65-5.08,4Z"/>
    <path class="st10" d="M389.11,485.09l-111.44-28.84c-1.6-.42-2.68-1.84-2.67-3.53l.91-108.62c.02-2.63,2.6-4.66,5.09-4.01l111.44,28.84c1.6.42,2.68,1.84,2.67,3.53l-.91,108.62c-.02,2.63-2.6,4.66-5.09,4.01Z"/>
    <path class="st209" d="M388.87,485.24l-111.65-28.89c-1.61-.42-2.69-1.85-2.67-3.54l.91-108.82c.02-2.64,2.6-4.67,5.1-4.02l111.65,28.89c1.61.42,2.69,1.85,2.67,3.54l-.91,108.82c-.02,2.64-2.6,4.67-5.1,4.02Z"/>
    <path class="st237" d="M388.63,485.39l-111.85-28.94c-1.61-.42-2.69-1.85-2.68-3.55l.91-109.02c.02-2.64,2.6-4.68,5.11-4.03l111.85,28.94c1.61.42,2.69,1.85,2.68,3.55l-.91,109.02c-.02,2.64-2.6,4.68-5.11,4.03Z"/>
    <path class="st211" d="M388.39,485.54l-112.05-28.99c-1.61-.42-2.7-1.85-2.68-3.55l.91-109.22c.02-2.65,2.61-4.68,5.12-4.03l112.05,28.99c1.61.42,2.7,1.85,2.68,3.55l-.91,109.22c-.02,2.65-2.61,4.68-5.12,4.03Z"/>
    <path class="st241" d="M388.16,485.69l-112.26-29.05c-1.62-.42-2.7-1.86-2.69-3.56l.91-109.41c.02-2.65,2.61-4.69,5.13-4.04l112.26,29.05c1.62.42,2.7,1.86,2.69,3.56l-.91,109.41c-.02,2.65-2.61,4.69-5.13,4.04Z"/>
    <path class="st100" d="M387.92,485.84l-112.46-29.1c-1.62-.42-2.71-1.86-2.69-3.57l.91-109.61c.02-2.65,2.62-4.7,5.14-4.05l112.46,29.1c1.62.42,2.71,1.86,2.69,3.57l-.91,109.61c-.02,2.65-2.62,4.7-5.14,4.05Z"/>
    <path class="st21" d="M387.68,486l-112.66-29.15c-1.62-.42-2.71-1.86-2.7-3.57l.92-109.81c.02-2.66,2.62-4.71,5.15-4.06l112.66,29.15c1.62.42,2.71,1.86,2.7,3.57l-.92,109.81c-.02,2.66-2.62,4.71-5.15,4.06Z"/>
    <path class="st89" d="M387.45,486.15l-112.86-29.2c-1.62-.42-2.72-1.87-2.7-3.58l.92-110.01c.02-2.66,2.63-4.72,5.16-4.06l112.86,29.2c1.62.42,2.72,1.87,2.7,3.58l-.92,110.01c-.02,2.66-2.63,4.72-5.16,4.06Z"/>
    <path class="st27" d="M387.21,486.3l-113.07-29.26c-1.63-.42-2.72-1.87-2.71-3.59l.92-110.21c.02-2.67,2.63-4.73,5.17-4.07l113.07,29.26c1.63.42,2.72,1.87,2.71,3.59l-.92,110.21c-.02,2.67-2.63,4.73-5.17,4.07Z"/>
    <path class="st4" d="M386.97,486.45l-113.27-29.31c-1.63-.42-2.73-1.87-2.71-3.59l.92-110.41c.02-2.67,2.64-4.73,5.18-4.08l113.27,29.31c1.63.42,2.73,1.87,2.71,3.59l-.92,110.41c-.02,2.67-2.64,4.73-5.18,4.08Z"/>
    <path class="st62" d="M386.73,486.6l-113.47-29.36c-1.63-.42-2.73-1.88-2.72-3.6l.92-110.6c.02-2.68,2.64-4.74,5.18-4.09l113.47,29.36c1.63.42,2.73,1.88,2.72,3.6l-.92,110.6c-.02,2.68-2.64,4.74-5.18,4.09Z"/>
    <path class="st217" d="M386.5,486.75l-113.68-29.41c-1.64-.42-2.74-1.88-2.72-3.6l.92-110.8c.02-2.68,2.65-4.75,5.19-4.09l113.68,29.41c1.64.42,2.74,1.88,2.72,3.6l-.92,110.8c-.02,2.68-2.65,4.75-5.19,4.09Z"/>
    <path class="st191" d="M386.26,486.9l-113.88-29.47c-1.64-.42-2.74-1.88-2.73-3.61l.93-111c.02-2.69,2.65-4.76,5.2-4.1l113.88,29.47c1.64.42,2.74,1.88,2.73,3.61l-.93,111c-.02,2.69-2.65,4.76-5.2,4.1Z"/>
    <path class="st148" d="M386.02,487.05l-114.08-29.52c-1.64-.42-2.75-1.89-2.73-3.62l.93-111.2c.02-2.69,2.66-4.77,5.21-4.11l114.08,29.52c1.64.42,2.75,1.89,2.73,3.62l-.93,111.2c-.02,2.69-2.66,4.77-5.21,4.11Z"/>
    <path class="st147" d="M385.78,487.21l-114.29-29.57c-1.65-.43-2.75-1.89-2.74-3.62l.93-111.4c.02-2.7,2.66-4.78,5.22-4.11l114.29,29.57c1.65.43,2.75,1.89,2.74,3.62l-.93,111.4c-.02,2.7-2.66,4.78-5.22,4.11Z"/>
    <path class="st31" d="M385.55,487.36l-114.49-29.62c-1.65-.43-2.76-1.89-2.74-3.63l.93-111.59c.02-2.7,2.67-4.79,5.23-4.12l114.49,29.62c1.65.43,2.76,1.89,2.74,3.63l-.93,111.59c-.02,2.7-2.67,4.79-5.23,4.12Z"/>
    <path class="st213" d="M385.31,487.51l-114.69-29.68c-1.65-.43-2.76-1.9-2.75-3.64l.93-111.79c.02-2.71,2.67-4.79,5.24-4.13l114.69,29.68c1.65.43,2.76,1.9,2.75,3.64l-.93,111.79c-.02,2.71-2.67,4.79-5.24,4.13Z"/>
    <path class="st119" d="M385.07,487.66l-114.9-29.73c-1.65-.43-2.77-1.9-2.75-3.64l.93-111.99c.02-2.71,2.68-4.8,5.25-4.14l114.9,29.73c1.65.43,2.77,1.9,2.75,3.64l-.93,111.99c-.02,2.71-2.68,4.8-5.25,4.14Z"/>
    <path class="st101" d="M384.84,487.81l-115.1-29.78c-1.66-.43-2.77-1.9-2.76-3.65l.93-112.19c.02-2.72,2.68-4.81,5.26-4.14l115.1,29.78c1.66.43,2.77,1.9,2.76,3.65l-.93,112.19c-.02,2.72-2.68,4.81-5.26,4.14Z"/>
    <path class="st35" d="M384.6,487.96l-115.3-29.83c-1.66-.43-2.78-1.91-2.76-3.66l.94-112.39c.02-2.72,2.69-4.82,5.27-4.15l115.3,29.83c1.66.43,2.78,1.91,2.76,3.66l-.94,112.39c-.02,2.72-2.69,4.82-5.27,4.15Z"/>
    <path class="st195" d="M384.36,488.11l-115.51-29.89c-1.66-.43-2.78-1.91-2.77-3.66l.94-112.59c.02-2.73,2.69-4.83,5.28-4.16l115.51,29.89c1.66.43,2.78,1.91,2.77,3.66l-.94,112.59c-.02,2.73-2.69,4.83-5.28,4.16Z"/>
    <path class="st16" d="M384.12,488.27l-115.71-29.94c-1.67-.43-2.79-1.91-2.77-3.67l.94-112.78c.02-2.73,2.69-4.84,5.29-4.17l115.71,29.94c1.67.43,2.79,1.91,2.77,3.67l-.94,112.78c-.02,2.73-2.69,4.84-5.29,4.17Z"/>
    <path class="st196" d="M383.89,488.42l-115.91-29.99c-1.67-.43-2.79-1.92-2.78-3.68l.94-112.98c.02-2.74,2.7-4.84,5.3-4.17l115.91,29.99c1.67.43,2.79,1.92,2.78,3.68l-.94,112.98c-.02,2.74-2.7,4.84-5.3,4.17Z"/>
    <path class="st159" d="M383.65,488.57l-116.12-30.05c-1.67-.43-2.8-1.92-2.78-3.68l.94-113.18c.02-2.74,2.7-4.85,5.31-4.18l116.12,30.05c1.67.43,2.8,1.92,2.78,3.68l-.94,113.18c-.02,2.74-2.7,4.85-5.31,4.18Z"/>
    <path class="st177" d="M383.41,488.72l-116.32-30.1c-1.67-.43-2.8-1.92-2.79-3.69l.94-113.38c.02-2.75,2.71-4.86,5.31-4.19l116.32,30.1c1.67.43,2.8,1.92,2.79,3.69l-.94,113.38c-.02,2.75-2.71,4.86-5.31,4.19Z"/>
    <path class="st205" d="M383.18,488.87l-116.52-30.15c-1.68-.43-2.81-1.93-2.79-3.7l.95-113.58c.02-2.75,2.71-4.87,5.32-4.19l116.52,30.15c1.68.43,2.81,1.93,2.79,3.7l-.95,113.58c-.02,2.75-2.71,4.87-5.32,4.19Z"/>
    <path class="st128" d="M382.94,489.02l-116.73-30.2c-1.68-.43-2.81-1.93-2.8-3.7l.95-113.77c.02-2.76,2.72-4.88,5.33-4.2l116.73,30.2c1.68.43,2.81,1.93,2.8,3.7l-.95,113.77c-.02,2.76-2.72,4.88-5.33,4.2Z"/>
    <path class="st137" d="M382.7,489.17l-116.93-30.26c-1.68-.44-2.82-1.93-2.8-3.71l.95-113.97c.02-2.76,2.72-4.89,5.34-4.21l116.93,30.26c1.68.44,2.82,1.93,2.8,3.71l-.95,113.97c-.02,2.76-2.72,4.89-5.34,4.21Z"/>
    <path class="st221" d="M382.46,489.32l-117.13-30.31c-1.69-.44-2.82-1.94-2.81-3.71l.95-114.17c.02-2.77,2.73-4.9,5.35-4.22l117.13,30.31c1.69.44,2.82,1.94,2.81,3.71l-.95,114.17c-.02,2.77-2.73,4.9-5.35,4.22Z"/>
    <path class="st66" d="M382.23,489.48l-117.34-30.36c-1.69-.44-2.83-1.94-2.81-3.72l.95-114.37c.02-2.77,2.73-4.9,5.36-4.22l117.34,30.36c1.69.44,2.83,1.94,2.81,3.72l-.95,114.37c-.02,2.77-2.73,4.9-5.36,4.22Z"/>
    <path class="st208" d="M381.99,489.63l-117.54-30.41c-1.69-.44-2.83-1.94-2.82-3.73l.95-114.57c.02-2.77,2.74-4.91,5.37-4.23l117.54,30.41c1.69.44,2.83,1.94,2.82,3.73l-.95,114.57c-.02,2.77-2.74,4.91-5.37,4.23Z"/>
    <path class="st204" d="M381.75,489.78l-117.74-30.47c-1.69-.44-2.84-1.95-2.82-3.73l.96-114.76c.02-2.78,2.74-4.92,5.38-4.24l117.74,30.47c1.69.44,2.84,1.95,2.82,3.73l-.96,114.76c-.02,2.78-2.74,4.92-5.38,4.24Z"/>
    <path class="st156" d="M381.51,489.93l-117.95-30.52c-1.7-.44-2.84-1.95-2.83-3.74l.96-114.96c.02-2.78,2.75-4.93,5.39-4.25l117.95,30.52c1.7.44,2.84,1.95,2.83,3.74l-.96,114.96c-.02,2.78-2.75,4.93-5.39,4.25Z"/>
    <path class="st202" d="M381.28,490.08l-118.15-30.57c-1.7-.44-2.84-1.95-2.83-3.75l.96-115.16c.02-2.79,2.75-4.94,5.4-4.25l118.15,30.57c1.7.44,2.84,1.95,2.83,3.75l-.96,115.16c-.02,2.79-2.75,4.94-5.4,4.25Z"/>
    <path class="st134" d="M381.04,490.23l-118.35-30.62c-1.7-.44-2.85-1.96-2.83-3.75l.96-115.36c.02-2.79,2.76-4.95,5.41-4.26l118.35,30.62c1.7.44,2.85,1.96,2.83,3.75l-.96,115.36c-.02,2.79-2.76,4.95-5.41,4.26Z"/>
    <path class="st5" d="M380.8,490.38l-118.56-30.68c-1.71-.44-2.85-1.96-2.84-3.76l.96-115.56c.02-2.8,2.76-4.96,5.42-4.27l118.56,30.68c1.71.44,2.85,1.96,2.84,3.76l-.96,115.56c-.02,2.8-2.76,4.96-5.42,4.27Z"/>
    <path class="st235" d="M380.57,490.54l-118.76-30.73c-1.71-.44-2.86-1.96-2.84-3.77l.96-115.76c.02-2.8,2.77-4.96,5.43-4.28l118.76,30.73c1.71.44,2.86,1.96,2.84,3.77l-.96,115.76c-.02,2.8-2.77,4.96-5.43,4.28Z"/>
    <path class="st25" d="M380.33,490.69l-118.96-30.78c-1.71-.44-2.86-1.97-2.85-3.77l.97-115.95c.02-2.81,2.77-4.97,5.44-4.28l118.96,30.78c1.71.44,2.86,1.97,2.85,3.77l-.97,115.95c-.02,2.81-2.77,4.97-5.44,4.28Z"/>
    <path class="st126" d="M380.09,490.84l-119.17-30.83c-1.72-.44-2.87-1.97-2.85-3.78l.97-116.15c.02-2.81,2.77-4.98,5.44-4.29l119.17,30.83c1.72.44,2.87,1.97,2.85,3.78l-.97,116.15c-.02,2.81-2.77,4.98-5.44,4.29Z"/>
    <path class="st17" d="M379.85,490.99l-119.37-30.89c-1.72-.44-2.87-1.98-2.86-3.79l.97-116.35c.02-2.82,2.78-4.99,5.45-4.3l119.37,30.89c1.72.44,2.87,1.98,2.86,3.79l-.97,116.35c-.02,2.82-2.78,4.99-5.45,4.3Z"/>
    <path class="st56" d="M379.62,491.14l-119.57-30.94c-1.72-.45-2.88-1.98-2.86-3.79l.97-116.55c.02-2.82,2.78-5,5.46-4.3l119.57,30.94c1.72.45,2.88,1.98,2.86,3.79l-.97,116.55c-.02,2.82-2.78,5-5.46,4.3Z"/>
    <path class="st251" d="M379.38,491.29l-119.78-30.99c-1.72-.45-2.88-1.98-2.87-3.8l.97-116.75c.02-2.83,2.79-5.01,5.47-4.31l119.78,30.99c1.72.45,2.88,1.98,2.87,3.8l-.97,116.75c-.02,2.83-2.79,5.01-5.47,4.31Z"/>
    <path class="st227" d="M379.14,491.44l-119.98-31.04c-1.73-.45-2.89-1.99-2.87-3.8l.97-116.94c.02-2.83,2.79-5.01,5.48-4.32l119.98,31.04c1.73.45,2.89,1.99,2.87,3.8l-.97,116.94c-.02,2.83-2.79,5.01-5.48,4.32Z"/>
    <path class="st180" d="M378.91,491.59l-120.18-31.1c-1.73-.45-2.89-1.99-2.88-3.81l.98-117.14c.02-2.84,2.8-5.02,5.49-4.33l120.18,31.1c1.73.45,2.89,1.99,2.88,3.81l-.98,117.14c-.02,2.84-2.8,5.02-5.49,4.33Z"/>
    <path class="st174" d="M378.67,491.75l-120.39-31.15c-1.73-.45-2.9-1.99-2.88-3.82l.98-117.34c.02-2.84,2.8-5.03,5.5-4.33l120.39,31.15c1.73.45,2.9,1.99,2.88,3.82l-.98,117.34c-.02,2.84-2.8,5.03-5.5,4.33Z"/>
    <path class="st91" d="M378.43,491.9l-120.59-31.2c-1.74-.45-2.9-2-2.89-3.82l.98-117.54c.02-2.85,2.81-5.04,5.51-4.34l120.59,31.2c1.74.45,2.9,2,2.89,3.82l-.98,117.54c-.02,2.85-2.81,5.04-5.51,4.34Z"/>
    <path class="st124" d="M378.19,492.05l-120.79-31.25c-1.74-.45-2.91-2-2.89-3.83l.98-117.74c.02-2.85,2.81-5.05,5.52-4.35l120.79,31.25c1.74.45,2.91,2,2.89,3.83l-.98,117.74c-.02,2.85-2.81,5.05-5.52,4.35Z"/>
    <path class="st250" d="M377.96,492.2l-121-31.31c-1.74-.45-2.91-2-2.9-3.84l.98-117.93c.02-2.86,2.82-5.06,5.53-4.36l121,31.31c1.74.45,2.91,2,2.9,3.84l-.98,117.93c-.02,2.86-2.82,5.06-5.53,4.36Z"/>
    <path class="st87" d="M377.72,492.35l-121.2-31.36c-1.74-.45-2.92-2.01-2.9-3.84l.98-118.13c.02-2.86,2.82-5.07,5.54-4.36l121.2,31.36c1.74.45,2.92,2.01,2.9,3.84l-.98,118.13c-.02,2.86-2.82,5.07-5.54,4.36Z"/>
    <path class="st12" d="M377.48,492.5l-121.4-31.41c-1.75-.45-2.92-2.01-2.91-3.85l.99-118.33c.02-2.87,2.83-5.07,5.55-4.37l121.4,31.41c1.75.45,2.92,2.01,2.91,3.85l-.99,118.33c-.02,2.87-2.83,5.07-5.55,4.37Z"/>
    <path class="st131" d="M377.24,492.65l-121.61-31.47c-1.75-.45-2.93-2.01-2.91-3.86l.99-118.53c.02-2.87,2.83-5.08,5.56-4.38l121.61,31.47c1.75.45,2.93,2.01,2.91,3.86l-.99,118.53c-.02,2.87-2.83,5.08-5.56,4.38Z"/>
    <path class="st44" d="M377.01,492.81l-121.81-31.52c-1.75-.45-2.93-2.02-2.92-3.86l.99-118.73c.02-2.88,2.84-5.09,5.57-4.39l121.81,31.52c1.75.45,2.93,2.02,2.92,3.86l-.99,118.73c-.02,2.88-2.84,5.09-5.57,4.39Z"/>
    <path class="st94" d="M376.77,492.96l-122.01-31.57c-1.76-.45-2.94-2.02-2.92-3.87l.99-118.93c.02-2.88,2.84-5.1,5.57-4.39l122.01,31.57c1.76.45,2.94,2.02,2.92,3.87l-.99,118.93c-.02,2.88-2.84,5.1-5.57,4.39Z"/>
    <path class="st223" d="M376.53,493.11l-122.22-31.62c-1.76-.46-2.94-2.02-2.93-3.88l.99-119.12c.02-2.88,2.85-5.11,5.58-4.4l122.22,31.62c1.76.46,2.94,2.02,2.93,3.88l-.99,119.12c-.02,2.88-2.85,5.11-5.58,4.4Z"/>
    <path class="st77" d="M376.3,493.26l-122.42-31.68c-1.76-.46-2.95-2.03-2.93-3.88l.99-119.32c.02-2.89,2.85-5.12,5.59-4.41l122.42,31.68c1.76.46,2.95,2.03,2.93,3.88l-.99,119.32c-.02,2.89-2.85,5.12-5.59,4.41Z"/>
    <path class="st43" d="M376.06,493.41l-122.62-31.73c-1.77-.46-2.95-2.03-2.94-3.89l1-119.52c.02-2.89,2.86-5.13,5.6-4.41l122.62,31.73c1.77.46,2.95,2.03,2.94,3.89l-1,119.52c-.02,2.89-2.86,5.13-5.6,4.41Z"/>
    <path class="st194" d="M375.82,493.56l-122.83-31.78c-1.77-.46-2.96-2.03-2.94-3.89l1-119.72c.02-2.9,2.86-5.13,5.61-4.42l122.83,31.78c1.77.46,2.96,2.03,2.94,3.89l-1,119.72c-.02,2.9-2.86,5.13-5.61,4.42Z"/>
    <path class="st172" d="M375.58,493.71l-123.03-31.83c-1.77-.46-2.96-2.04-2.95-3.9l1-119.92c.02-2.9,2.86-5.14,5.62-4.43l123.03,31.83c1.77.46,2.96,2.04,2.95,3.9l-1,119.92c-.02,2.9-2.86,5.14-5.62,4.43Z"/>
    <path class="st60" d="M375.35,493.86l-123.23-31.89c-1.77-.46-2.97-2.04-2.95-3.91l1-120.11c.02-2.91,2.87-5.15,5.63-4.44l123.23,31.89c1.77.46,2.97,2.04,2.95,3.91l-1,120.11c-.02,2.91-2.87,5.15-5.63,4.44Z"/>
    <path class="st83" d="M375.11,494.02l-123.44-31.94c-1.78-.46-2.97-2.04-2.96-3.91l1-120.31c.02-2.91,2.87-5.16,5.64-4.44l123.44,31.94c1.78.46,2.97,2.04,2.96,3.91l-1,120.31c-.02,2.91-2.87,5.16-5.64,4.44Z"/>
    <path class="st115" d="M374.87,494.17l-123.64-31.99c-1.78-.46-2.98-2.05-2.96-3.92l1-120.51c.02-2.92,2.88-5.17,5.65-4.45l123.64,31.99c1.78.46,2.98,2.05,2.96,3.92l-1,120.51c-.02,2.92-2.88,5.17-5.65,4.45Z"/>
    <path class="st28" d="M374.63,494.32l-123.84-32.04c-1.78-.46-2.98-2.05-2.97-3.93l1.01-120.71c.02-2.92,2.88-5.18,5.66-4.46l123.84,32.04c1.78.46,2.98,2.05,2.97,3.93l-1.01,120.71c-.02,2.92-2.88,5.18-5.66,4.46Z"/>
    <path class="st23" d="M374.4,494.47l-124.05-32.1c-1.79-.46-2.99-2.05-2.97-3.93l1.01-120.91c.02-2.93,2.89-5.18,5.67-4.47l124.05,32.1c1.79.46,2.99,2.05,2.97,3.93l-1.01,120.91c-.02,2.93-2.89,5.18-5.67,4.47Z"/>
    <path class="st49" d="M374.16,494.62l-124.25-32.15c-1.79-.46-2.99-2.06-2.98-3.94l1.01-121.11c.02-2.93,2.89-5.19,5.68-4.47l124.25,32.15c1.79.46,2.99,2.06,2.98,3.94l-1.01,121.11c-.02,2.93-2.89,5.19-5.68,4.47Z"/>
    <path class="st22" d="M373.92,494.77l-124.45-32.2c-1.79-.46-3-2.06-2.98-3.95l1.01-121.3c.02-2.94,2.9-5.2,5.69-4.48l124.45,32.2c1.79.46,3,2.06,2.98,3.95l-1.01,121.3c-.02,2.94-2.9,5.2-5.69,4.48Z"/>
    <path class="st206" d="M373.69,494.92l-124.66-32.25c-1.79-.46-3-2.06-2.99-3.95l1.01-121.5c.02-2.94,2.9-5.21,5.7-4.49l124.66,32.25c1.79.46,3,2.06,2.99,3.95l-1.01,121.5c-.02,2.94-2.9,5.21-5.7,4.49Z"/>
    <path class="st144" d="M373.45,495.08l-124.86-32.31c-1.8-.47-3.01-2.07-2.99-3.96l1.01-121.7c.02-2.95,2.91-5.22,5.71-4.49l124.86,32.31c1.8.47,3.01,2.07,2.99,3.96l-1.01,121.7c-.02,2.95-2.91,5.22-5.71,4.49Z"/>
    <path class="st203" d="M373.21,495.23l-125.06-32.36c-1.8-.47-3.01-2.07-3-3.97l1.02-121.9c.02-2.95,2.91-5.23,5.71-4.5l125.06,32.36c1.8.47,3.01,2.07,3,3.97l-1.02,121.9c-.02,2.95-2.91,5.23-5.71,4.5Z"/>
    <path class="st13" d="M372.97,495.38l-125.27-32.41c-1.8-.47-3.02-2.07-3-3.97l1.02-122.1c.02-2.96,2.92-5.24,5.72-4.51l125.27,32.41c1.8.47,3.02,2.07,3,3.97l-1.02,122.1c-.02,2.96-2.92,5.24-5.72,4.51Z"/>
    <path class="st88" d="M372.74,495.53l-125.47-32.46c-1.81-.47-3.02-2.08-3.01-3.98l1.02-122.29c.02-2.96,2.92-5.24,5.73-4.52l125.47,32.46c1.81.47,3.02,2.08,3.01,3.98l-1.02,122.29c-.02,2.96-2.92,5.24-5.73,4.52Z"/>
    <path class="st105" d="M372.5,495.68l-125.67-32.52c-1.81-.47-3.03-2.08-3.01-3.99l1.02-122.49c.02-2.97,2.93-5.25,5.74-4.52l125.67,32.52c1.81.47,3.03,2.08,3.01,3.99l-1.02,122.49c-.02,2.97-2.93,5.25-5.74,4.52Z"/>
    <path class="st97" d="M372.26,495.83l-125.88-32.57c-1.81-.47-3.03-2.08-3.01-3.99l1.02-122.69c.02-2.97,2.93-5.26,5.75-4.53l125.88,32.57c1.81.47,3.03,2.08,3.01,3.99l-1.02,122.69c-.02,2.97-2.93,5.26-5.75,4.53Z"/>
    <path class="st18" d="M372.03,495.98l-126.08-32.62c-1.81-.47-3.04-2.09-3.02-4l1.02-122.89c.02-2.98,2.94-5.27,5.76-4.54l126.08,32.62c1.81.47,3.04,2.09,3.02,4l-1.02,122.89c-.02,2.98-2.94,5.27-5.76,4.54Z"/>
    <path class="st90" d="M371.79,496.13l-126.28-32.68c-1.82-.47-3.04-2.09-3.02-4l1.03-123.09c.02-2.98,2.94-5.28,5.77-4.55l126.28,32.68c1.82.47,3.04,2.09,3.02,4l-1.03,123.09c-.02,2.98-2.94,5.28-5.77,4.55Z"/>
    <path class="st120" d="M371.55,496.29l-126.48-32.73c-1.82-.47-3.05-2.09-3.03-4.01l1.03-123.28c.02-2.99,2.95-5.29,5.78-4.55l126.48,32.73c1.82.47,3.05,2.09,3.03,4.01l-1.03,123.28c-.02,2.99-2.95,5.29-5.78,4.55Z"/>
    <path class="st42" d="M371.31,496.44l-126.69-32.78c-1.82-.47-3.05-2.1-3.03-4.02l1.03-123.48c.02-2.99,2.95-5.3,5.79-4.56l126.69,32.78c1.82.47,3.05,2.1,3.03,4.02l-1.03,123.48c-.02,2.99-2.95,5.3-5.79,4.56Z"/>
    <path class="st112" d="M371.08,496.59l-126.89-32.83c-1.83-.47-3.06-2.1-3.04-4.02l1.03-123.68c.02-3,2.95-5.3,5.8-4.57l126.89,32.83c1.83.47,3.06,2.1,3.04,4.02l-1.03,123.68c-.02,3-2.95,5.3-5.8,4.57Z"/>
    <path class="st163" d="M370.84,496.74l-127.09-32.89c-1.83-.47-3.06-2.1-3.04-4.03l1.03-123.88c.03-3,2.96-5.31,5.81-4.58l127.09,32.89c1.83.47,3.06,2.1,3.04,4.03l-1.03,123.88c-.03,3-2.96,5.31-5.81,4.58Z"/>
    <path class="st67" d="M370.6,496.89l-127.3-32.94c-1.83-.47-3.07-2.11-3.05-4.04l1.03-124.08c.03-3,2.96-5.32,5.82-4.58l127.3,32.94c1.83.47,3.07,2.11,3.05,4.04l-1.03,124.08c-.03,3-2.96,5.32-5.82,4.58Z"/>
    <path class="st59" d="M370.36,497.04l-127.5-32.99c-1.84-.47-3.07-2.11-3.05-4.04l1.04-124.28c.03-3.01,2.97-5.33,5.83-4.59l127.5,32.99c1.84.47,3.07,2.11,3.05,4.04l-1.04,124.28c-.03,3.01-2.97,5.33-5.83,4.59Z"/>
    <path class="st1" d="M370.13,497.19l-127.7-33.04c-1.84-.48-3.07-2.11-3.06-4.05l1.04-124.47c.03-3.01,2.97-5.34,5.84-4.6l127.7,33.04c1.84.48,3.07,2.11,3.06,4.05l-1.04,124.47c-.03,3.01-2.97,5.34-5.84,4.6Z"/>
    <path class="st132" d="M369.89,497.35l-127.91-33.1c-1.84-.48-3.08-2.12-3.06-4.06l1.04-124.67c.03-3.02,2.98-5.35,5.84-4.6l127.91,33.1c1.84.48,3.08,2.12,3.06,4.06l-1.04,124.67c-.03,3.02-2.98,5.35-5.84,4.6Z"/>
    <path class="st95" d="M369.65,497.5l-128.11-33.15c-1.84-.48-3.08-2.12-3.07-4.06l1.04-124.87c.03-3.02,2.98-5.35,5.85-4.61l128.11,33.15c1.84.48,3.08,2.12,3.07,4.06l-1.04,124.87c-.03,3.02-2.98,5.35-5.85,4.61Z"/>
    <path class="st210" d="M369.42,497.65l-128.31-33.2c-1.85-.48-3.09-2.12-3.07-4.07l1.04-125.07c.03-3.03,2.99-5.36,5.86-4.62l128.31,33.2c1.85.48,3.09,2.12,3.07,4.07l-1.04,125.07c-.03,3.03-2.99,5.36-5.86,4.62Z"/>
    <path class="st247" d="M369.18,497.8l-128.52-33.25c-1.85-.48-3.09-2.13-3.08-4.08l1.04-125.27c.03-3.03,2.99-5.37,5.87-4.63l128.52,33.25c1.85.48,3.09,2.13,3.08,4.08l-1.04,125.27c-.03,3.03-2.99,5.37-5.87,4.63Z"/>
    <path class="st230" d="M368.94,497.95l-128.72-33.31c-1.85-.48-3.1-2.13-3.08-4.08l1.05-125.46c.03-3.04,3-5.38,5.88-4.63l128.72,33.31c1.85.48,3.1,2.13,3.08,4.08l-1.05,125.46c-.03,3.04-3,5.38-5.88,4.63Z"/>
    <path class="st216" d="M368.7,498.1l-128.92-33.36c-1.86-.48-3.1-2.13-3.09-4.09l1.05-125.66c.03-3.04,3-5.39,5.89-4.64l128.92,33.36c1.86.48,3.1,2.13,3.09,4.09l-1.05,125.66c-.03,3.04-3,5.39-5.89,4.64Z"/>
    <path class="st164" d="M368.47,498.25l-129.13-33.41c-1.86-.48-3.11-2.14-3.09-4.09l1.05-125.86c.03-3.05,3.01-5.4,5.9-4.65l129.13,33.41c1.86.48,3.11,2.14,3.09,4.09l-1.05,125.86c-.03,3.05-3.01,5.4-5.9,4.65Z"/>
    <path class="st86" d="M368.23,498.4l-129.33-33.46c-1.86-.48-3.11-2.14-3.1-4.1l1.05-126.06c.03-3.05,3.01-5.41,5.91-4.66l129.33,33.46c1.86.48,3.11,2.14,3.1,4.1l-1.05,126.06c-.03,3.05-3.01,5.41-5.91,4.66Z"/>
    <path class="st70" d="M367.99,498.56l-129.53-33.52c-1.86-.48-3.12-2.14-3.1-4.11l1.05-126.26c.03-3.06,3.02-5.41,5.92-4.66l129.53,33.52c1.86.48,3.12,2.14,3.1,4.11l-1.05,126.26c-.03,3.06-3.02,5.41-5.92,4.66Z"/>
    <path class="st81" d="M367.76,498.71l-129.74-33.57c-1.87-.48-3.12-2.15-3.11-4.11l1.05-126.45c.03-3.06,3.02-5.42,5.93-4.67l129.74,33.57c1.87.48,3.12,2.15,3.11,4.11l-1.05,126.45c-.03,3.06-3.02,5.42-5.93,4.67Z"/>
    <path class="st152" d="M367.52,498.86l-129.94-33.62c-1.87-.48-3.13-2.15-3.11-4.12l1.06-126.65c.03-3.07,3.03-5.43,5.94-4.68l129.94,33.62c1.87.48,3.13,2.15,3.11,4.12l-1.06,126.65c-.03,3.07-3.03,5.43-5.94,4.68Z"/>
    <path class="st82" d="M367.28,499.01l-130.14-33.67c-1.87-.48-3.13-2.15-3.12-4.13l1.06-126.85c.03-3.07,3.03-5.44,5.95-4.69l130.14,33.67c1.87.48,3.13,2.15,3.12,4.13l-1.06,126.85c-.03,3.07-3.03,5.44-5.95,4.69Z"/>
    <path class="st19" d="M367.04,499.16l-130.35-33.73c-1.88-.49-3.14-2.16-3.12-4.13l1.06-127.05c.03-3.08,3.04-5.45,5.96-4.69l130.35,33.73c1.88.49,3.14,2.16,3.12,4.13l-1.06,127.05c-.03,3.08-3.04,5.45-5.96,4.69Z"/>
    <path class="st125" d="M366.81,499.31l-130.55-33.78c-1.88-.49-3.14-2.16-3.13-4.14l1.06-127.25c.03-3.08,3.04-5.46,5.97-4.7l130.55,33.78c1.88.49,3.14,2.16,3.13,4.14l-1.06,127.25c-.03,3.08-3.04,5.46-5.97,4.7Z"/>
    <path class="st9" d="M366.57,499.46l-130.75-33.83c-1.88-.49-3.15-2.16-3.13-4.15l1.06-127.45c.03-3.09,3.04-5.47,5.97-4.71l130.75,33.83c1.88.49,3.15,2.16,3.13,4.15l-1.06,127.45c-.03,3.09-3.04,5.47-5.97,4.71Z"/>
    <path class="st151" d="M366.33,499.62l-130.96-33.88c-1.89-.49-3.15-2.17-3.14-4.15l1.06-127.64c.03-3.09,3.05-5.47,5.98-4.71l130.96,33.88c1.89.49,3.15,2.17,3.14,4.15l-1.06,127.64c-.03,3.09-3.05,5.47-5.98,4.71Z"/>
    <path class="st140" d="M366.09,499.77l-131.16-33.94c-1.89-.49-3.16-2.17-3.14-4.16l1.07-127.84c.03-3.1,3.05-5.48,5.99-4.72l131.16,33.94c1.89.49,3.16,2.17,3.14,4.16l-1.07,127.84c-.03,3.1-3.05,5.48-5.99,4.72Z"/>
    <path class="st197" d="M365.86,499.92l-131.36-33.99c-1.89-.49-3.16-2.17-3.15-4.17l1.07-128.04c.03-3.1,3.06-5.49,6-4.73l131.36,33.99c1.89.49,3.16,2.17,3.15,4.17l-1.07,128.04c-.03,3.1-3.06,5.49-6,4.73Z"/>
    <path class="st157" d="M365.62,500.07l-131.57-34.04c-1.89-.49-3.17-2.18-3.15-4.17l1.07-128.24c.03-3.11,3.06-5.5,6.01-4.74l131.57,34.04c1.89.49,3.17,2.18,3.15,4.17l-1.07,128.24c-.03,3.11-3.06,5.5-6.01,4.74Z"/>
    <path class="st173" d="M365.38,500.22l-131.77-34.1c-1.9-.49-3.17-2.18-3.16-4.18l1.07-128.44c.03-3.11,3.07-5.51,6.02-4.74l131.77,34.1c1.9.49,3.17,2.18,3.16,4.18l-1.07,128.44c-.03,3.11-3.07,5.51-6.02,4.74Z"/>
    <path class="st36" d="M365.15,500.37l-131.97-34.15c-1.9-.49-3.18-2.18-3.16-4.18l1.07-128.63c.03-3.12,3.07-5.52,6.03-4.75l131.97,34.15c1.9.49,3.18,2.18,3.16,4.18l-1.07,128.63c-.03,3.12-3.07,5.52-6.03,4.75Z"/>
    <path class="st98" d="M364.91,500.52l-132.18-34.2c-1.9-.49-3.18-2.19-3.17-4.19l1.07-128.83c.03-3.12,3.08-5.52,6.04-4.76l132.18,34.2c1.9.49,3.18,2.19,3.17,4.19l-1.07,128.83c-.03,3.12-3.08,5.52-6.04,4.76Z"/>
    <path class="st15" d="M364.67,500.67l-132.38-34.25c-1.91-.49-3.19-2.19-3.17-4.2l1.08-129.03c.03-3.12,3.08-5.53,6.05-4.77l132.38,34.25c1.91.49,3.19,2.19,3.17,4.2l-1.08,129.03c-.03,3.12-3.08,5.53-6.05,4.77Z"/>
    <path class="st0" d="M364.43,500.83l-132.58-34.31c-1.91-.49-3.19-2.19-3.18-4.2l1.08-129.23c.03-3.13,3.09-5.54,6.06-4.77l132.58,34.31c1.91.49,3.19,2.19,3.18,4.2l-1.08,129.23c-.03,3.13-3.09,5.54-6.06,4.77Z"/>
    <path class="st57" d="M364.2,500.98l-132.79-34.36c-1.91-.49-3.2-2.2-3.18-4.21l1.08-129.43c.03-3.13,3.09-5.55,6.07-4.78l132.79,34.36c1.91.49,3.2,2.2,3.18,4.21l-1.08,129.43c-.03,3.13-3.09,5.55-6.07,4.78Z"/>
    <path class="st245" d="M363.96,501.13l-132.99-34.41c-1.91-.5-3.2-2.2-3.19-4.22l1.08-129.63c.03-3.14,3.1-5.56,6.08-4.79l132.99,34.41c1.91.5,3.2,2.2,3.19,4.22l-1.08,129.63c-.03,3.14-3.1,5.56-6.08,4.79Z"/>
    <path class="st189" d="M363.72,501.28l-133.19-34.46c-1.92-.5-3.21-2.2-3.19-4.22l1.08-129.82c.03-3.14,3.1-5.57,6.09-4.8l133.19,34.46c1.92.5,3.21,2.2,3.19,4.22l-1.08,129.82c-.03,3.14-3.1,5.57-6.09,4.8Z"/>
    <path class="st240" d="M363.49,501.43l-133.4-34.52c-1.92-.5-3.21-2.21-3.2-4.23l1.08-130.02c.03-3.15,3.11-5.58,6.1-4.8l133.4,34.52c1.92.5,3.21,2.21,3.2,4.23l-1.08,130.02c-.03,3.15-3.11,5.58-6.1,4.8Z"/>
    <path class="st110" d="M363.25,501.58l-133.6-34.57c-1.92-.5-3.22-2.21-3.2-4.24l1.09-130.22c.03-3.15,3.11-5.58,6.1-4.81l133.6,34.57c1.92.5,3.22,2.21,3.2,4.24l-1.09,130.22c-.03,3.15-3.11,5.58-6.1,4.81Z"/>
    <path class="st184" d="M363.01,501.73l-133.8-34.62c-1.93-.5-3.22-2.21-3.2-4.24l1.09-130.42c.03-3.16,3.12-5.59,6.11-4.82l133.8,34.62c1.93.5,3.22,2.21,3.2,4.24l-1.09,130.42c-.03,3.16-3.12,5.59-6.11,4.82Z"/>
    <path class="st234" d="M362.77,501.89l-134.01-34.67c-1.93-.5-3.23-2.22-3.21-4.25l1.09-130.62c.03-3.16,3.12-5.6,6.12-4.82l134.01,34.67c1.93.5,3.23,2.22,3.21,4.25l-1.09,130.62c-.03,3.16-3.12,5.6-6.12,4.82Z"/>
    <path class="st225" d="M362.54,502.04l-134.21-34.73c-1.93-.5-3.23-2.22-3.21-4.26l1.09-130.81c.03-3.17,3.13-5.61,6.13-4.83l134.21,34.73c1.93.5,3.23,2.22,3.21,4.26l-1.09,130.81c-.03,3.17-3.13,5.61-6.13,4.83Z"/>
    <path class="st169" d="M362.3,502.19l-134.41-34.78c-1.93-.5-3.24-2.22-3.22-4.26l1.09-131.01c.03-3.17,3.13-5.62,6.14-4.84l134.41,34.78c1.93.5,3.24,2.22,3.22,4.26l-1.09,131.01c-.03,3.17-3.13,5.62-6.14,4.84Z"/>
    <path class="st154" d="M362.06,502.34l-134.62-34.83c-1.94-.5-3.24-2.23-3.22-4.27l1.09-131.21c.03-3.18,3.13-5.63,6.15-4.85l134.62,34.83c1.94.5,3.24,2.23,3.22,4.27l-1.09,131.21c-.03,3.18-3.13,5.63-6.15,4.85Z"/>
    <path class="st142" d="M361.82,502.49l-134.82-34.88c-1.94-.5-3.25-2.23-3.23-4.28l1.1-131.41c.03-3.18,3.14-5.64,6.16-4.85l134.82,34.88c1.94.5,3.25,2.23,3.23,4.28l-1.1,131.41c-.03,3.18-3.14,5.64-6.16,4.85Z"/>
    <path class="st207" d="M361.59,502.64l-135.02-34.94c-1.94-.5-3.25-2.23-3.23-4.28l1.1-131.61c.03-3.19,3.14-5.64,6.17-4.86l135.02,34.94c1.94.5,3.25,2.23,3.23,4.28l-1.1,131.61c-.03,3.19-3.14,5.64-6.17,4.86Z"/>
    <path class="st135" d="M361.35,502.79l-135.23-34.99c-1.95-.5-3.26-2.24-3.24-4.29l1.1-131.8c.03-3.19,3.15-5.65,6.18-4.87l135.23,34.99c1.95.5,3.26,2.24,3.24,4.29l-1.1,131.8c-.03,3.19-3.15,5.65-6.18,4.87Z"/>
    <path class="st236" d="M361.11,502.94l-135.43-35.04c-1.95-.5-3.26-2.24-3.24-4.29l1.1-132c.03-3.2,3.15-5.66,6.19-4.88l135.43,35.04c1.95.5,3.26,2.24,3.24,4.29l-1.1,132c-.03,3.2-3.15,5.66-6.19,4.88Z"/>
    <path class="st146" d="M360.88,503.1l-135.63-35.09c-1.95-.51-3.27-2.24-3.25-4.3l1.1-132.2c.03-3.2,3.16-5.67,6.2-4.88l135.63,35.09c1.95.51,3.27,2.24,3.25,4.3l-1.1,132.2c-.03,3.2-3.16,5.67-6.2,4.88Z"/>
    <path class="st99" d="M360.64,503.25l-135.84-35.15c-1.96-.51-3.27-2.25-3.25-4.31l1.1-132.4c.03-3.21,3.16-5.68,6.21-4.89l135.84,35.15c1.96.51,3.27,2.25,3.25,4.31l-1.1,132.4c-.03,3.21-3.16,5.68-6.21,4.89Z"/>
    <path class="st166" d="M360.4,503.4l-136.04-35.2c-1.96-.51-3.28-2.25-3.26-4.31l1.11-132.6c.03-3.21,3.17-5.69,6.22-4.9l136.04,35.2c1.96.51,3.28,2.25,3.26,4.31l-1.11,132.6c-.03,3.21-3.17,5.69-6.22,4.9Z"/>
    <path class="st34" d="M360.16,503.55l-136.24-35.25c-1.96-.51-3.28-2.25-3.26-4.32l1.11-132.8c.03-3.22,3.17-5.69,6.23-4.9l136.24,35.25c1.96.51,3.28,2.25,3.26,4.32l-1.11,132.8c-.03,3.22-3.17,5.69-6.23,4.9Z"/>
    <path class="st72" d="M359.93,503.7l-136.45-35.31c-1.96-.51-3.29-2.26-3.27-4.33l1.11-132.99c.03-3.22,3.18-5.7,6.23-4.91l136.45,35.31c1.96.51,3.29,2.26,3.27,4.33l-1.11,132.99c-.03,3.22-3.18,5.7-6.23,4.91Z"/>
    <path class="st218" d="M359.69,503.85l-136.65-35.36c-1.97-.51-3.29-2.26-3.27-4.33l1.11-133.19c.03-3.23,3.18-5.71,6.24-4.92l136.65,35.36c1.97.51,3.29,2.26,3.27,4.33l-1.11,133.19c-.03,3.23-3.18,5.71-6.24,4.92Z"/>
    <path class="st153" d="M359.45,504l-136.85-35.41c-1.97-.51-3.3-2.26-3.28-4.34l1.11-133.39c.03-3.23,3.19-5.72,6.25-4.93l136.85,35.41c1.97.51,3.3,2.26,3.28,4.34l-1.11,133.39c-.03,3.23-3.19,5.72-6.25,4.93Z"/>
    <path class="st193" d="M359.22,504.16l-137.06-35.46c-1.97-.51-3.3-2.27-3.28-4.35l1.11-133.59c.03-3.24,3.19-5.73,6.26-4.93l137.06,35.46c1.97.51,3.3,2.27,3.28,4.35l-1.11,133.59c-.03,3.24-3.19,5.73-6.26,4.93Z"/>
    <path class="st73" d="M358.98,504.31l-137.26-35.52c-1.98-.51-3.3-2.27-3.29-4.35l1.11-133.79c.03-3.24,3.2-5.74,6.27-4.94l137.26,35.52c1.98.51,3.3,2.27,3.29,4.35l-1.11,133.79c-.03,3.24-3.2,5.74-6.27,4.94Z"/>
    <path class="st161" d="M358.74,504.46l-137.46-35.57c-1.98-.51-3.31-2.27-3.29-4.36l1.12-133.98c.03-3.24,3.2-5.75,6.28-4.95l137.46,35.57c1.98.51,3.31,2.27,3.29,4.36l-1.12,133.98c-.03,3.24-3.2,5.75-6.28,4.95Z"/>
    <path class="st244" d="M358.5,504.61l-137.67-35.62c-1.98-.51-3.31-2.28-3.3-4.37l1.12-134.18c.03-3.25,3.21-5.75,6.29-4.96l137.67,35.62c1.98.51,3.31,2.28,3.3,4.37l-1.12,134.18c-.03,3.25-3.21,5.75-6.29,4.96Z"/>
    <path class="st58" d="M358.27,504.76l-137.87-35.67c-1.98-.51-3.32-2.28-3.3-4.37l1.12-134.38c.03-3.25,3.21-5.76,6.3-4.96l137.87,35.67c1.98.51,3.32,2.28,3.3,4.37l-1.12,134.38c-.03,3.25-3.21,5.76-6.3,4.96Z"/>
    <path class="st215" d="M358.03,504.91l-138.07-35.73c-1.99-.51-3.32-2.28-3.31-4.38l1.12-134.58c.03-3.26,3.22-5.77,6.31-4.97l138.07,35.73c1.99.51,3.32,2.28,3.31,4.38l-1.12,134.58c-.03,3.26-3.22,5.77-6.31,4.97Z"/>
    <path class="st33" d="M357.79,505.06l-138.28-35.78c-1.99-.51-3.33-2.29-3.31-4.38l1.12-134.78c.03-3.26,3.22-5.78,6.32-4.98l138.28,35.78c1.99.51,3.33,2.29,3.31,4.38l-1.12,134.78c-.03,3.26-3.22,5.78-6.32,4.98Z"/>
    <path class="st232" d="M357.55,505.21l-138.48-35.83c-1.99-.52-3.33-2.29-3.32-4.39l1.12-134.97c.03-3.27,3.22-5.79,6.33-4.99l138.48,35.83c1.99.52,3.33,2.29,3.32,4.39l-1.12,134.97c-.03,3.27-3.22,5.79-6.33,4.99Z"/>
    <path class="st185" d="M357.32,505.37l-138.68-35.88c-2-.52-3.34-2.29-3.32-4.4l1.13-135.17c.03-3.27,3.23-5.8,6.34-4.99l138.68,35.88c2,.52,3.34,2.29,3.32,4.4l-1.13,135.17c-.03,3.27-3.23,5.8-6.34,4.99Z"/>
    <path class="st39" d="M357.08,505.52l-138.89-35.94c-2-.52-3.34-2.3-3.33-4.4l1.13-135.37c.03-3.28,3.23-5.81,6.35-5l138.89,35.94c2,.52,3.34,2.3,3.33,4.4l-1.13,135.37c-.03,3.28-3.23,5.81-6.35,5Z"/>
    <path class="st133" d="M356.84,505.67l-139.09-35.99c-2-.52-3.35-2.3-3.33-4.41l1.13-135.57c.03-3.28,3.24-5.81,6.36-5.01l139.09,35.99c2,.52,3.35,2.3,3.33,4.41l-1.13,135.57c-.03,3.28-3.24,5.81-6.36,5.01Z"/>
    <path class="st37" d="M356.61,505.82l-139.29-36.04c-2-.52-3.35-2.3-3.34-4.42l1.13-135.77c.03-3.29,3.24-5.82,6.36-5.01l139.29,36.04c2,.52,3.35,2.3,3.34,4.42l-1.13,135.77c-.03,3.29-3.24,5.82-6.36,5.01Z"/>
    <path class="st54" d="M356.37,505.97l-139.5-36.09c-2.01-.52-3.36-2.31-3.34-4.42l1.13-135.97c.03-3.29,3.25-5.83,6.37-5.02l139.5,36.09c2.01.52,3.36,2.31,3.34,4.42l-1.13,135.97c-.03,3.29-3.25,5.83-6.37,5.02Z"/>
    <path class="st103" d="M356.13,506.12l-139.7-36.15c-2.01-.52-3.36-2.31-3.35-4.43l1.13-136.16c.03-3.3,3.25-5.84,6.38-5.03l139.7,36.15c2.01.52,3.36,2.31,3.35,4.43l-1.13,136.16c-.03,3.3-3.25,5.84-6.38,5.03Z"/>
    <path class="st48" d="M355.89,506.27l-139.9-36.2c-2.01-.52-3.37-2.31-3.35-4.44l1.14-136.36c.03-3.3,3.26-5.85,6.39-5.04l139.9,36.2c2.01.52,3.37,2.31,3.35,4.44l-1.14,136.36c-.03,3.3-3.26,5.85-6.39,5.04Z"/>
    <path class="st102" d="M355.66,506.43l-140.1-36.25c-2.02-.52-3.37-2.32-3.36-4.44l1.14-136.56c.03-3.31,3.26-5.86,6.4-5.04l140.1,36.25c2.02.52,3.37,2.32,3.36,4.44l-1.14,136.56c-.03,3.31-3.26,5.86-6.4,5.04Z"/>
    <path class="st78" d="M355.42,506.58l-140.31-36.3c-2.02-.52-3.38-2.32-3.36-4.45l1.14-136.76c.03-3.31,3.27-5.86,6.41-5.05l140.31,36.3c2.02.52,3.38,2.32,3.36,4.45l-1.14,136.76c-.03,3.31-3.27,5.86-6.41,5.05Z"/>
    <path class="st32" d="M355.18,506.73l-140.51-36.36c-2.02-.52-3.38-2.32-3.37-4.46l1.14-136.96c.03-3.32,3.27-5.87,6.42-5.06l140.51,36.36c2.02.52,3.38,2.32,3.37,4.46l-1.14,136.96c-.03,3.32-3.27,5.87-6.42,5.06Z"/>
    <path class="st222" d="M354.95,506.88l-140.71-36.41c-2.03-.52-3.39-2.33-3.37-4.46l1.14-137.15c.03-3.32,3.28-5.88,6.43-5.07l140.71,36.41c2.03.52,3.39,2.33,3.37,4.46l-1.14,137.15c-.03,3.32-3.28,5.88-6.43,5.07Z"/>
    <path class="st190" d="M354.71,507.03l-140.92-36.46c-2.03-.52-3.39-2.33-3.38-4.47l1.14-137.35c.03-3.33,3.28-5.89,6.44-5.07l140.92,36.46c2.03.52,3.39,2.33,3.38,4.47l-1.14,137.35c-.03,3.33-3.28,5.89-6.44,5.07Z"/>
    <path class="st162" d="M354.47,507.18l-141.12-36.51c-2.03-.53-3.4-2.33-3.38-4.48l1.15-137.55c.03-3.33,3.29-5.9,6.45-5.08l141.12,36.51c2.03.53,3.4,2.33,3.38,4.48l-1.15,137.55c-.03,3.33-3.29,5.9-6.45,5.08Z"/>
    <path class="st171" d="M354.23,507.33l-141.32-36.57c-2.03-.53-3.4-2.34-3.38-4.48l1.15-137.75c.03-3.34,3.29-5.91,6.46-5.09l141.32,36.57c2.03.53,3.4,2.34,3.38,4.48l-1.15,137.75c-.03,3.34-3.29,5.91-6.46,5.09Z"/>
    <path class="st176" d="M354,507.48l-141.53-36.62c-2.04-.53-3.41-2.34-3.39-4.49l1.15-137.95c.03-3.34,3.3-5.92,6.47-5.1l141.53,36.62c2.04.53,3.41,2.34,3.39,4.49l-1.15,137.95c-.03,3.34-3.3,5.92-6.47,5.1Z"/>
    <path class="st238" d="M353.76,507.64l-141.73-36.67c-2.04-.53-3.41-2.35-3.39-4.49l1.15-138.15c.03-3.35,3.3-5.92,6.48-5.1l141.73,36.67c2.04.53,3.41,2.35,3.39,4.49l-1.15,138.15c-.03,3.35-3.3,5.92-6.48,5.1Z"/>
    <path class="st199" d="M353.52,507.79l-141.93-36.73c-2.04-.53-3.42-2.35-3.4-4.5l1.15-138.34c.03-3.35,3.31-5.93,6.49-5.11l141.93,36.73c2.04.53,3.42,2.35,3.4,4.5l-1.15,138.34c-.03,3.35-3.31,5.93-6.49,5.11Z"/>
    <path class="st199" d="M353.28,507.94l-142.14-36.78c-2.05-.53-3.42-2.35-3.4-4.51l1.15-138.54c.03-3.36,3.31-5.94,6.49-5.12l142.14,36.78c2.05.53,3.42,2.35,3.4,4.51l-1.15,138.54c-.03,3.36-3.31,5.94-6.49,5.12Z"/>
    <path class="st243" d="M353.05,508.09l-142.34-36.83c-2.05-.53-3.43-2.36-3.41-4.51l1.16-138.74c.03-3.36,3.31-5.95,6.5-5.12l142.34,36.83c2.05.53,3.43,2.36,3.41,4.51l-1.16,138.74c-.03,3.36-3.31,5.95-6.5,5.12Z"/>
    <path class="st121" d="M352.81,508.24l-142.54-36.88c-2.05-.53-3.43-2.36-3.41-4.52l1.16-138.94c.03-3.36,3.32-5.96,6.51-5.13l142.54,36.88c2.05.53,3.43,2.36,3.41,4.52l-1.16,138.94c-.03,3.36-3.32,5.96-6.51,5.13Z"/>
    <path class="st121" d="M352.57,508.39l-142.75-36.94c-2.05-.53-3.44-2.36-3.42-4.53l1.16-139.14c.03-3.37,3.32-5.97,6.52-5.14l142.75,36.94c2.05.53,3.44,2.36,3.42,4.53l-1.16,139.14c-.03,3.37-3.32,5.97-6.52,5.14Z"/>
    <path class="st226" d="M352.34,508.54l-142.95-36.99c-2.06-.53-3.44-2.37-3.42-4.53l1.16-139.33c.03-3.37,3.33-5.98,6.53-5.15l142.95,36.99c2.06.53,3.44,2.37,3.42,4.53l-1.16,139.33c-.03,3.37-3.33,5.98-6.53,5.15Z"/>
    <path class="st52" d="M352.1,508.7l-143.15-37.04c-2.06-.53-3.45-2.37-3.43-4.54l1.16-139.53c.03-3.38,3.33-5.98,6.54-5.15l143.15,37.04c2.06.53,3.45,2.37,3.43,4.54l-1.16,139.53c-.03,3.38-3.33,5.98-6.54,5.15Z"/>
    <path class="st52" d="M351.86,508.85l-143.36-37.09c-2.06-.53-3.45-2.37-3.43-4.55l1.16-139.73c.03-3.38,3.34-5.99,6.55-5.16l143.36,37.09c2.06.53,3.45,2.37,3.43,4.55l-1.16,139.73c-.03,3.38-3.34,5.99-6.55,5.16Z"/>
    <path class="st229" d="M351.62,509l-143.56-37.15c-2.07-.53-3.46-2.38-3.44-4.55l1.17-139.93c.03-3.39,3.34-6,6.56-5.17l143.56,37.15c2.07.53,3.46,2.38,3.44,4.55l-1.17,139.93c-.03,3.39-3.34,6-6.56,5.17Z"/>
    <path class="st160" d="M351.39,509.15l-143.76-37.2c-2.07-.54-3.46-2.38-3.44-4.56l1.17-140.13c.03-3.39,3.35-6.01,6.57-5.18l143.76,37.2c2.07.54,3.46,2.38,3.44,4.56l-1.17,140.13c-.03,3.39-3.35,6.01-6.57,5.18Z"/>
    <path class="st160" d="M351.15,509.3l-143.97-37.25c-2.07-.54-3.47-2.38-3.45-4.57l1.17-140.32c.03-3.4,3.35-6.02,6.58-5.18l143.97,37.25c2.07.54,3.47,2.38,3.45,4.57l-1.17,140.32c-.03,3.4-3.35,6.02-6.58,5.18Z"/>
    <path class="st68" d="M350.91,509.45l-144.17-37.3c-2.08-.54-3.47-2.39-3.45-4.57l1.17-140.52c.03-3.4,3.36-6.03,6.59-5.19l144.17,37.3c2.08.54,3.47,2.39,3.45,4.57l-1.17,140.52c-.03,3.4-3.36,6.03-6.59,5.19Z"/>
    <path class="st68" d="M350.68,509.6l-144.37-37.36c-2.08-.54-3.48-2.39-3.46-4.58l1.17-140.72c.03-3.41,3.36-6.03,6.6-5.2l144.37,37.36c2.08.54,3.48,2.39,3.46,4.58l-1.17,140.72c-.03,3.41-3.36,6.03-6.6,5.2Z"/>
    <path class="st182" d="M350.44,509.75l-144.58-37.41c-2.08-.54-3.48-2.39-3.46-4.58l1.17-140.92c.03-3.41,3.37-6.04,6.61-5.2l144.58,37.41c2.08.54,3.48,2.39,3.46,4.58l-1.17,140.92c-.03,3.41-3.37,6.04-6.61,5.2Z"/>
    <path class="st182" d="M350.2,509.91l-144.78-37.46c-2.08-.54-3.49-2.4-3.47-4.59l1.18-141.12c.03-3.42,3.37-6.05,6.62-5.21l144.78,37.46c2.08.54,3.49,2.4,3.47,4.59l-1.18,141.12c-.03,3.42-3.37,6.05-6.62,5.21Z"/>
    <path class="st182" d="M348.6,510.65l-144.78-37.46c-2.08-.54-3.49-2.4-3.47-4.59l1.18-141.12c.03-3.42,3.37-6.05,6.62-5.21l144.78,37.46c2.08.54,3.49,2.4,3.47,4.59l-1.18,141.12c-.03,3.42-3.37,6.05-6.62,5.21Z"/>
    <path class="st68" d="M347,511.4l-144.78-37.46c-2.08-.54-3.49-2.4-3.47-4.59l1.18-141.12c.03-3.42,3.37-6.05,6.62-5.21l144.78,37.46c2.08.54,3.49,2.4,3.47,4.59l-1.18,141.12c-.03,3.42-3.37,6.05-6.62,5.21Z"/>
    <path class="st68" d="M345.41,512.15l-144.78-37.46c-2.08-.54-3.49-2.4-3.47-4.59l1.18-141.12c.03-3.42,3.37-6.05,6.62-5.21l144.78,37.46c2.08.54,3.49,2.4,3.47,4.59l-1.18,141.12c-.03,3.42-3.37,6.05-6.62,5.21Z"/>
    <path class="st160" d="M343.81,512.89l-144.78-37.46c-2.08-.54-3.49-2.4-3.47-4.59l1.18-141.12c.03-3.42,3.37-6.05,6.62-5.21l144.78,37.46c2.08.54,3.49,2.4,3.47,4.59l-1.18,141.12c-.03,3.42-3.37,6.05-6.62,5.21Z"/>
    <path class="st160" d="M342.21,513.64l-144.78-37.46c-2.08-.54-3.49-2.4-3.47-4.59l1.18-141.12c.03-3.42,3.37-6.05,6.62-5.21l144.78,37.46c2.08.54,3.49,2.4,3.47,4.59l-1.18,141.12c-.03,3.42-3.37,6.05-6.62,5.21Z"/>
    <path class="st229" d="M340.61,514.39l-144.78-37.46c-2.08-.54-3.49-2.4-3.47-4.59l1.18-141.12c.03-3.42,3.37-6.05,6.62-5.21l144.78,37.46c2.08.54,3.49,2.4,3.47,4.59l-1.18,141.12c-.03,3.42-3.37,6.05-6.62,5.21Z"/>
    <path class="st229" d="M339.01,515.14l-144.78-37.46c-2.08-.54-3.49-2.4-3.47-4.59l1.18-141.12c.03-3.42,3.37-6.05,6.62-5.21l144.78,37.46c2.08.54,3.49,2.4,3.47,4.59l-1.18,141.12c-.03,3.42-3.37,6.05-6.62,5.21Z"/>
    <path class="st52" d="M337.42,515.88l-144.78-37.46c-2.08-.54-3.49-2.4-3.47-4.59l1.18-141.12c.03-3.42,3.37-6.05,6.62-5.21l144.78,37.46c2.08.54,3.49,2.4,3.47,4.59l-1.18,141.12c-.03,3.42-3.37,6.05-6.62,5.21Z"/>
    <path class="st188" d="M335.82,516.63l-144.78-37.46c-2.08-.54-3.49-2.4-3.47-4.59l1.18-141.12c.03-3.42,3.37-6.05,6.62-5.21l144.78,37.46c2.08.54,3.49,2.4,3.47,4.59l-1.18,141.12c-.03,3.42-3.37,6.05-6.62,5.21Z"/>
    <path class="st226" d="M334.22,517.38l-144.78-37.46c-2.08-.54-3.49-2.4-3.47-4.59l1.18-141.12c.03-3.42,3.37-6.05,6.62-5.21l144.78,37.46c2.08.54,3.49,2.4,3.47,4.59l-1.18,141.12c-.03,3.42-3.37,6.05-6.62,5.21Z"/>
    <path class="st121" d="M332.62,518.12l-144.78-37.46c-2.08-.54-3.49-2.4-3.47-4.59l1.18-141.12c.03-3.42,3.37-6.05,6.62-5.21l144.78,37.46c2.08.54,3.49,2.4,3.47,4.59l-1.18,141.12c-.03,3.42-3.37,6.05-6.62,5.21Z"/>
    <path class="st121" d="M331.02,518.87l-144.78-37.46c-2.08-.54-3.49-2.4-3.47-4.59l1.18-141.12c.03-3.42,3.37-6.05,6.62-5.21l144.78,37.46c2.08.54,3.49,2.4,3.47,4.59l-1.18,141.12c-.03,3.42-3.37,6.05-6.62,5.21Z"/>
    <path class="st243" d="M329.43,519.62l-144.78-37.46c-2.08-.54-3.49-2.4-3.47-4.59l1.18-141.12c.03-3.42,3.37-6.05,6.62-5.21l144.78,37.46c2.08.54,3.49,2.4,3.47,4.59l-1.18,141.12c-.03,3.42-3.37,6.05-6.62,5.21Z"/>
    <path class="st175" d="M327.83,520.37l-144.78-37.46c-2.08-.54-3.49-2.4-3.47-4.59l1.18-141.12c.03-3.42,3.37-6.05,6.62-5.21l144.78,37.46c2.08.54,3.49,2.4,3.47,4.59l-1.18,141.12c-.03,3.42-3.37,6.05-6.62,5.21Z"/>
  </g>
  <path class="st200" d="M322.65,513.12l-134.11-34.56c-1.93-.5-3.23-2.21-3.21-4.24l1.09-130.28c.03-3.16,3.12-5.59,6.13-4.81l134.11,34.56c1.93.5,3.23,2.21,3.21,4.24l-1.09,130.28c-.03,3.16-3.12,5.59-6.13,4.81Z"/>
  <path class="st168" d="M296.04,486.21l-88.49-22.9c-2.31-.6-3.92-2.69-3.9-5.08l.72-86.12c.03-3.66,3.5-6.32,7.04-5.41l88.49,22.9c2.31.6,3.92,2.69,3.9,5.08l-.72,86.12c-.03,3.66-3.5,6.32-7.04,5.41Z"/>
  <path class="st256" d="M221.17,382.75c.73.18,1.38.21,1.82.16v-1.13c-.57.05-1.11,0-1.77-.17-1.43-.36-2.09-1-2.09-2.95,0-1.84.67-2.26,2.14-1.9.65.16,1.16.38,1.63.64v-1.15c-.47-.27-.99-.47-1.71-.65-2.17-.54-3.56,0-3.55,2.68,0,2.91,1.41,3.92,3.55,4.45h0Z"/>
  <path class="st256" d="M212.16,377.07c-.09-.03-.17-.08-.23-.12l-4.5-3.49c-.13-.1-.13-.18,0-.18.13,0,.33.08.46.17l4.5,3.49c.13.1.13.18,0,.18,0,0,0,0,0,0-.06,0-.14-.02-.23-.05h0Z"/>
  <path class="st255" d="M207.68,377.13c-.09-.03-.17-.08-.23-.12-.13-.1-.13-.18,0-.18,0,0,0,0,0,0l4.49-.06c.13,0,.33.08.46.17.13.1.13.18,0,.18l-4.49.06c-.06,0-.14-.02-.23-.05Z"/>
  <g>
    <path class="st256" d="M215.88,371.67c0,.08-.01.16-.03.21l-1.47,4.17c-.04.12-.1.12-.14,0-.03-.12-.03-.31.01-.42l1.47-4.17c.04-.12.1-.12.14,0,0,0,0,0,0,0,.02.06.02.13.02.21h0Z"/>
    <path class="st256" d="M217.1,375.87c0,.08-.01.16-.03.21-.04.12-.1.12-.14,0,0,0,0,0,0,0l-1.22-4.2c-.03-.12-.03-.31.01-.42.04-.12.1-.12.14,0l1.22,4.2c.02.06.02.13.02.21Z"/>
  </g>
  <line class="st254" x1="224.88" y1="383.29" x2="229.94" y2="384.41"/>
</svg>